<svg width="56" height="57" viewBox="0 0 56 57" fill="none" xmlns="http://www.w3.org/2000/svg">
<path fill-rule="evenodd" clip-rule="evenodd" d="M56 26.6558C55.953 25.853 55.906 25.0634 55.8632 24.3002C55.8504 24.1106 55.8376 23.9209 55.8247 23.7356C55.7991 23.5503 55.7777 23.3651 55.7521 23.1842C55.7008 22.8225 55.6538 22.4696 55.6067 22.1299C55.4315 21.8564 55.4614 20.8242 55.1194 20.5904C55.1023 20.1802 55.0981 20.0346 54.9271 19.6597C55.1622 19.7655 54.833 19.2186 55.0083 19.2538C54.8501 18.9495 54.9143 18.5172 54.7475 18.4113C54.8288 18.8612 54.9997 19.1127 54.8672 19.2935C54.8031 18.8657 54.5894 18.4554 54.6706 18.1246C54.5466 17.807 54.1918 17.2644 54.2389 16.9556C54.0722 16.9821 54.1363 16.5718 53.9738 16.4351C53.9055 16.4307 53.9268 16.5718 53.8755 16.4792C53.7088 16.241 53.7302 15.8484 53.572 15.6631C53.5977 15.7469 53.6233 15.8263 53.5549 15.8308C53.4524 15.6322 53.5378 15.6058 53.4353 15.4073C53.3156 15.4337 53.4908 15.7249 53.4908 15.8616C53.649 15.9543 53.9439 16.735 53.8969 16.8674C53.7558 16.6556 53.6447 16.6159 53.6661 16.338C53.5549 16.3292 53.649 16.5013 53.5806 16.5321C53.6618 16.7571 53.7729 16.7174 53.8542 16.9644C53.7473 16.9556 53.6575 16.8233 53.5549 16.7747C53.6319 17.0218 53.7558 16.9027 53.8371 17.1276C53.7986 17.2159 53.6533 16.9688 53.7003 17.1806C53.7302 17.2026 53.7516 17.2291 53.7644 17.26C53.743 17.2644 53.7216 17.2688 53.7003 17.2776C53.6575 17.2997 53.6105 17.3261 53.5678 17.3482C53.5763 17.3173 53.5934 17.2953 53.6233 17.282C53.5122 17.0968 53.5336 17.0571 53.5122 16.863C53.431 16.8983 53.4951 17.2026 53.5421 17.3614C53.4481 17.4144 53.354 17.4629 53.2557 17.5114C53.2472 17.5158 53.2301 17.5026 53.213 17.4849C53.1959 17.4188 53.1745 17.357 53.1531 17.2909C53.1489 17.2159 53.136 17.1409 53.0676 17.0835C52.9864 16.885 52.9223 16.6909 53.0078 16.541C52.7812 16.4263 52.5205 15.522 52.5504 15.2794C52.4649 15.297 52.3666 15.1779 52.2811 15.0367C52.2811 14.9838 52.2811 14.9353 52.2897 14.8823C52.2982 14.8118 52.2426 14.7853 52.17 14.8029C52.1187 14.675 52.0973 14.5647 52.1272 14.5471C52.0204 14.4456 51.9178 14.3398 51.8109 14.2251C51.7767 14.1369 51.7425 14.0486 51.7041 13.9604C51.7126 13.9604 51.7211 13.9648 51.7297 13.9692C51.5972 13.6737 51.4604 13.4002 51.3151 13.1355C51.3108 13.1311 51.3108 13.1267 51.3065 13.1223C50.9902 12.5179 50.6226 11.9313 50.2165 11.3887C50.0754 11.1417 49.9301 10.8814 49.7762 10.5947C49.7292 10.6344 49.6694 10.6079 49.6095 10.5461C49.5796 10.2638 49.2975 9.9771 49.0666 9.72125C49.0111 9.52716 48.9213 9.34189 48.8059 9.16103C48.8144 9.14779 48.823 9.13456 48.8401 9.12133C48.7589 9.01105 48.7247 8.99782 48.699 9.01105C48.6648 8.96253 48.6264 8.91842 48.5922 8.8743C48.4383 8.68021 48.2673 8.49053 48.1091 8.30085C47.9424 8.11558 47.7843 7.93031 47.6603 7.73621C47.2756 7.11424 46.8909 6.47461 46.4549 5.86587C46.0018 5.27918 45.4931 4.72778 44.822 4.37929C44.6895 4.26901 44.6809 4.4631 44.5612 4.37488C44.168 3.99552 43.6465 3.65144 43.1207 3.28531C42.5736 2.95447 42.0264 2.59276 41.5049 2.28398C40.7783 1.81639 40.1456 1.22088 39.3292 0.90768C38.8504 0.740055 38.4187 0.620954 38.0126 0.585665C37.6065 0.554787 37.2304 0.590078 36.8756 0.704769C36.166 0.395985 35.1615 0.735647 34.5246 0.228359C34.3664 0.250415 34.3493 0.418039 34.0886 0.329815C33.9005 0.290114 33.9218 0.201893 33.8321 0.140137C33.7893 0.343052 33.8962 0.320991 33.7466 0.466561C34.298 0.515084 34.5374 0.616542 35.0375 0.563608C35.1615 0.620953 35.1914 0.695945 35.3923 0.744468C36.5037 0.762113 37.8288 0.867984 39.2266 1.35322C40.5688 1.83845 41.6845 2.83978 42.6676 3.12651C42.8471 3.27649 42.6548 3.39119 42.7659 3.53235C43.3045 3.68233 43.5225 4.18961 44.0569 4.52487C44.4245 4.7763 44.8818 4.81159 45.2794 5.13361C45.6726 5.47327 45.9419 5.80852 46.2241 6.16141C46.4934 6.52313 46.7712 6.90249 47.1773 7.3392C47.1816 7.36567 47.1858 7.38772 47.1901 7.41419C46.9935 7.24657 46.8567 7.08777 46.5446 6.84074C46.5874 6.76134 46.7071 6.95543 46.7584 6.91132C46.5318 6.6687 46.3309 6.51872 46.1599 6.36433C45.989 6.20994 45.8479 6.04673 45.7239 5.7997C45.6299 5.94968 45.3777 5.64972 45.258 5.72029C45.523 5.98056 45.865 6.30698 45.8607 6.58048C45.6 6.43491 45.6427 6.19229 45.4888 6.18347C45.6513 6.50108 45.8436 6.67311 46.0702 6.83633C46.2967 6.99954 46.5233 7.1804 46.7797 7.48036C46.7456 7.52006 46.7028 7.51565 46.6558 7.50683C46.7883 7.74945 47.0533 7.91266 47.25 8.05823C47.2927 8.12881 47.344 8.19497 47.391 8.26114C47.3568 8.23908 47.3226 8.22145 47.2799 8.21262C47.3226 8.30526 47.3782 8.4023 47.4124 8.49494C47.3739 8.47288 47.3397 8.45965 47.3183 8.46406C47.3654 8.51258 47.4081 8.56111 47.4466 8.60963C47.4551 8.65815 47.4594 8.70667 47.4466 8.74637C47.1046 8.55228 46.7883 8.45965 46.4805 8.38466C46.4335 8.31408 46.3993 8.2435 46.3737 8.18174L46.2967 8.26114C46.3437 8.30084 46.3737 8.33613 46.3993 8.36701C46.3523 8.35819 46.3095 8.34496 46.2625 8.33614C46.2412 8.31408 46.2198 8.29202 46.2027 8.26556C46.2412 8.22585 46.1685 8.045 46.1129 8.16851C46.1728 8.23027 46.1856 8.27437 46.1642 8.30966C46.0573 8.2435 45.9334 8.2038 45.8479 8.11558C45.7539 8.01853 45.7197 7.86414 45.6427 7.75386C45.5358 7.60388 45.2153 7.60388 45.1426 7.77591C45.1169 7.83326 45.0913 7.88178 45.0614 7.93472C44.9631 7.88178 44.8647 7.82002 44.7664 7.75386C44.8049 7.56859 44.7793 7.3789 44.698 7.18922C44.6852 7.16276 44.5997 7.15834 44.5484 7.15834C44.5271 7.15834 44.4929 7.1804 44.4843 7.20246C44.48 7.21128 44.4758 7.2201 44.4715 7.23334C44.3219 7.16717 44.168 7.07894 44.1295 6.89367C44.0868 6.9422 44.0654 6.99072 44.0825 7.05248C44.1979 7.13188 44.309 7.19805 44.4416 7.33479C44.4416 7.34803 44.4416 7.36126 44.4458 7.36567C44.51 7.43184 44.5399 7.50683 44.5655 7.58182C44.262 7.28186 43.9799 7.03042 43.6978 6.84074C43.6337 6.79663 43.5695 6.76134 43.5097 6.72164C43.5183 6.71282 43.5268 6.70399 43.5354 6.69517C43.5183 6.67312 43.5012 6.65106 43.4841 6.629C43.467 6.64664 43.4499 6.65988 43.437 6.67752C43.2361 6.55842 43.0438 6.46578 42.8557 6.38638C42.7873 6.3158 42.7232 6.24523 42.6719 6.18347C42.6035 6.13054 42.5266 6.08642 42.4496 6.0379C41.3211 4.9748 39.8421 3.947 38.2221 3.19268C36.4524 2.35014 34.5502 1.83845 32.9601 1.662C32.5967 1.48555 32.2548 1.35321 31.8786 1.27381C31.5024 1.19 31.1006 1.12824 30.6219 1.12824C30.1303 0.673887 29.1643 0.612131 28.2238 0.660654C27.9887 0.673888 27.7536 0.68712 27.5271 0.700354C27.3005 0.717998 27.0783 0.740055 26.8731 0.748877C26.4584 0.762111 26.0994 0.748881 25.8344 0.656246C25.3855 1.23411 23.8723 1.09296 23.3423 0.898863C23.2782 1.10619 23.0559 1.19882 22.7951 1.23411C22.5344 1.27381 22.2309 1.2694 21.9915 1.25175C21.9744 1.17235 22.342 1.00032 21.9573 1.08854C21.7735 1.1106 21.7906 1.19882 21.7051 1.25617C21.517 1.16794 21.2819 1.12824 21.1665 0.978261C20.8203 1.02678 20.7989 1.17235 20.4527 1.22088C20.5168 1.08854 20.551 0.947383 20.7519 0.854748C21.2307 0.656244 21.3375 0.810635 21.6154 0.819458C21.5769 0.682711 21.4016 0.682714 21.6624 0.581256C21.8547 0.898862 22.2437 0.373928 22.5387 0.634188C22.3677 0.6783 22.2352 0.731234 22.1882 0.819458C22.5387 0.691533 22.9661 0.568021 23.2739 0.462152C23.1756 0.479797 23.0302 0.470976 23.1713 0.422453C21.4743 0.356285 19.8884 0.673888 18.3966 1.21205C16.9005 1.75463 15.4942 2.51336 14.0793 3.41765C13.857 3.39118 13.5364 3.54558 13.2244 3.6735C12.4763 4.32636 11.9035 4.72777 12.0318 5.3674C12.9465 4.68366 13.6305 4.05286 15.2591 3.20592C15.6566 3.15298 16.0071 3.21474 16.2123 3.47059C15.024 4.28225 13.5151 4.74542 12.4934 5.71147C12.3481 5.85263 12.331 5.96291 12.1857 6.08202C11.3008 6.80986 10.7836 7.08336 10.1638 7.56418C8.95837 8.50376 7.94529 9.80947 6.96642 10.9784C6.75269 11.2387 6.34661 11.3534 6.32096 11.7857C6.6159 11.4857 6.9194 11.1681 7.1716 10.8505C7.43235 10.5373 7.66745 10.2418 7.81706 9.9771C8.15047 9.6992 8.5993 9.31983 9.02676 8.89635C9.47986 8.49935 9.92015 8.05823 10.3091 7.7318C10.5314 7.60387 10.7409 7.47154 10.9418 7.3392C11.1469 7.21128 11.3393 7.08336 11.5274 6.95102C11.8993 6.67753 12.2626 6.41285 12.6345 6.13495C13.3783 5.57914 14.1862 5.01009 15.2933 4.51604C15.5369 4.71896 15.7635 4.53369 16.1311 4.37929C16.2508 4.68808 16.5714 4.67926 16.9775 4.52487C17.1655 4.34401 16.7466 4.38371 16.9433 4.23372C17.2126 4.21608 17.469 4.21608 17.5973 4.4234C17.3835 4.51604 17.157 4.65279 17.0202 4.63073C17.1997 4.83806 17.6657 4.58662 17.7896 4.88658C17.4177 5.09391 17.0715 5.33211 16.7381 5.56591C16.4132 5.81735 16.0969 6.06437 15.7891 6.31581C15.1736 6.82751 14.5709 7.31715 13.8656 7.7318C13.6048 7.73621 13.3868 7.62152 13.1047 7.67887C13.1004 7.97442 13.6647 7.71416 13.8613 7.87296C13.716 8.09352 13.4894 8.30967 13.2842 8.53464C13.2244 8.60522 13.1645 8.6758 13.1047 8.74197C13.0919 8.74638 13.0791 8.75079 13.062 8.7552C12.7969 8.82137 12.4892 8.914 12.3695 9.20073C12.3481 9.24925 12.3225 9.29336 12.3011 9.33747C12.1002 9.49628 11.9164 9.65508 11.7497 9.81388C11.7411 9.81829 11.7326 9.8227 11.7197 9.82712C11.7026 9.85358 11.6813 9.87123 11.6642 9.89329C11.6342 9.92417 11.5958 9.95504 11.5659 9.99033C11.3521 10.1624 11.0786 10.1712 10.8007 10.1668C10.7024 10.1668 10.6511 10.2241 10.6254 10.3168C10.6083 10.3697 10.5827 10.427 10.5485 10.4667C10.463 10.5638 10.3861 10.7358 10.2236 10.555C10.074 10.5903 9.99709 10.7094 9.94579 10.8373C9.85175 11.0755 9.72351 11.2431 9.44567 11.2255C9.39437 11.2211 9.32598 11.2431 9.29178 11.2784C9.09943 11.4901 8.81731 11.6225 8.72754 11.9224C8.67197 12.1165 8.51809 12.0768 8.39412 12.0989C8.37275 12.1474 8.35565 12.2136 8.32573 12.2268C7.90255 12.3591 7.58623 12.6371 7.28701 12.9547C7.12885 13.1223 6.98352 13.2855 6.75696 13.3781C6.45347 13.5061 6.09441 13.6207 6.15425 14.1016C6.1628 14.1633 6.06021 14.2427 6.00037 14.3089C5.89778 14.4148 5.79519 14.5118 5.68405 14.6089C5.62848 14.6574 5.57718 14.7721 5.48742 14.6618C5.42757 14.5868 5.27369 14.5427 5.39338 14.3927C5.42757 14.3486 5.45322 14.2912 5.45322 14.2339C5.45322 14.181 5.41902 14.128 5.40193 14.0795C5.37628 14.0972 5.35491 14.1104 5.32926 14.128C5.14118 14.2736 5.02576 14.4853 5.03859 14.7059C5.04714 14.8206 5.07706 14.9044 4.99157 14.9926C4.85051 15.1338 4.72227 15.297 4.49572 15.2926C4.22214 15.2882 4.42305 15.447 4.40168 15.544C4.35893 15.7293 4.25634 15.9719 4.10673 16.0513C3.95285 16.1351 3.84598 16.2454 3.76477 16.3689C3.79896 16.2013 3.83743 16.0337 3.90155 15.8705C4.25207 14.8735 5.09843 13.8016 5.44467 12.8135C5.86785 12.6679 5.53016 12.5179 5.99609 12.1562C5.94052 12.0283 5.87213 11.7857 5.73534 11.8563C5.6755 11.8386 5.60711 11.896 5.53871 11.9533C5.33353 12.5091 5.00439 12.8311 4.87188 13.3561C3.85881 14.4236 3.28174 15.694 2.86283 17.0659C2.82436 17.0703 2.79016 17.0747 2.74742 17.0703C2.75169 17.1276 2.78162 17.1718 2.82009 17.1982C2.81154 17.2291 2.80299 17.2556 2.79444 17.2864C2.75597 17.4188 2.72177 17.5511 2.68757 17.6835C2.61491 17.732 2.54224 17.7761 2.46102 17.8158C2.31569 17.882 2.21737 18.0143 2.2131 18.2216C2.20455 18.8127 2.19172 18.8171 1.6745 19.1259C1.63176 19.1524 1.58474 19.1656 1.53772 19.1788C1.52489 19.2847 1.46932 19.3465 1.37101 19.3597C1.38383 19.5009 1.59756 19.6332 1.37101 19.7876C1.25559 19.867 1.153 19.9817 1.08034 20.1052C1.05042 20.1581 1.02049 20.2067 0.986296 20.2552C0.986296 20.2331 0.982021 20.2155 0.977747 20.1978C0.969198 20.2331 0.956374 20.2772 0.94355 20.3169C0.89653 20.3743 0.840961 20.4272 0.759745 20.4713C0.597311 20.5596 0.751195 20.7228 0.815314 20.8419C0.55029 21.1727 0.819588 21.6624 0.507545 21.98C0.50327 22.2138 0.541741 22.4608 0.486172 22.6813C0.422053 22.9328 0.302365 23.1577 0.340836 23.4357C0.370758 23.6386 0.263894 23.7621 0.0758135 23.8194C0.0416169 23.8282 -0.00112933 23.9385 0.0159689 23.965C0.135657 24.1547 0.0587153 24.3311 0.0116951 24.512C0.229698 24.7899 0.178403 25.1251 0.165579 25.4427C0.152755 25.7559 0.246796 26.0912 0.0159689 26.3735C-0.0267767 26.4264 0.020244 26.55 0.11001 26.5852C0.216874 26.6294 0.328013 26.6558 0.319464 26.8102C0.315189 26.9293 0.319464 27.044 0.328013 27.1631C0.357935 27.6483 0.263894 28.1512 0.498996 28.6188C0.528918 28.6762 0.481897 28.7864 0.45625 28.8658C0.430602 28.9364 0.336562 28.9849 0.422053 29.082C0.554565 29.2276 0.520369 29.4128 0.507545 29.5849C0.481898 29.9554 0.486172 30.123 0.567389 30.273C0.687077 30.498 0.781118 30.745 0.990572 30.917C1.07179 30.9832 1.1701 31.0979 1.17438 31.1949C1.1872 31.464 1.2385 31.7111 1.36246 31.9404C1.31116 32.3992 1.52489 32.7786 1.71725 33.1623C1.74289 33.2109 1.78564 33.2991 1.80274 33.2947C2.13188 33.2064 2.18318 33.5593 2.38408 33.6696C2.58499 33.7799 2.79444 33.8814 3.00389 33.9828C3.04236 34.0799 3.08084 34.1813 3.11931 34.2828C3.10648 34.3137 3.11503 34.3401 3.14923 34.3578C3.18342 34.4548 3.21762 34.5607 3.25182 34.6621C3.13213 34.7901 3.05091 34.9092 3.17915 35.1341C3.31594 35.3723 3.36296 35.6679 3.43135 35.9414C3.45272 36.034 3.47837 36.1134 3.55959 36.1399C3.67927 36.1796 3.75194 36.2061 3.67072 36.3649C3.61088 36.4884 3.6408 36.6781 3.55959 36.7751C3.35868 37.0089 3.62371 37.1368 3.64508 37.3177C3.65363 37.4103 3.79896 37.4015 3.85881 37.353C4.01697 37.225 4.1452 37.0662 4.29909 36.9383C4.4487 36.8148 4.36321 36.7266 4.31619 36.5854C4.22215 36.3075 4.27771 36.012 4.31619 35.7208C4.32046 35.6988 4.35038 35.6811 4.36748 35.6591C4.38885 35.6811 4.42305 35.7032 4.42305 35.7252C4.43587 35.959 4.65815 36.0473 4.74364 36.2237C4.78639 36.3075 4.57693 36.4443 4.74364 36.4928C5.00012 36.5678 5.10271 36.7486 5.18392 36.978C5.28224 37.2471 5.37628 37.5162 5.49169 37.7764C5.61565 38.0632 5.76099 38.3455 5.89778 38.6278C5.93197 38.7028 5.99609 38.791 5.98754 38.8616C5.94907 39.1616 6.08586 39.3821 6.29104 39.5453C6.50904 39.7174 6.50904 39.9335 6.50476 40.1761C6.50049 40.3217 6.47912 40.4761 6.59881 40.5864C6.83391 40.8025 6.91512 41.1201 7.08183 41.3804C7.1545 41.4951 7.1716 41.3275 7.20152 41.2701C7.22289 41.226 7.26136 41.1907 7.29128 41.151C7.30838 41.1731 7.34258 41.1995 7.34258 41.2216C7.33403 41.5657 7.42807 41.9053 7.24854 42.245C7.12458 42.4788 7.20152 42.739 7.34685 42.9861C7.5905 43.3963 7.62043 43.4581 8.00086 43.5904C8.32146 43.7007 8.37703 43.7624 8.38557 44.0668C8.39412 44.3315 8.3642 44.6006 8.61213 44.7858C8.65487 44.8167 8.71044 44.8785 8.71044 44.927C8.70617 45.3372 9.00539 45.5446 9.24476 45.7872C9.42429 45.968 9.56963 46.2062 9.8432 46.268C9.96716 46.5371 10.1894 46.7224 10.3604 46.9517C10.5485 47.2076 10.9289 47.2252 11.0187 47.5781C11.0315 47.6355 11.0999 47.6178 11.1298 47.5428C11.1512 47.4899 11.1469 47.4281 11.1726 47.3752C11.1811 47.3576 11.194 47.3399 11.2025 47.3223C11.335 47.4326 11.4846 47.5428 11.63 47.6487C11.5274 47.5428 11.4077 47.3531 11.2837 47.1899C11.288 47.1767 11.2966 47.1679 11.2966 47.1546C11.3222 47.0135 11.2196 46.9694 11.0999 46.9341C11.0273 46.912 10.9332 46.8414 10.9076 46.7753C10.8905 46.7268 10.8648 46.6871 10.8435 46.6429C10.8563 46.6429 10.8734 46.6474 10.8905 46.6518C10.8605 46.6121 10.8349 46.5944 10.8093 46.5768C10.6639 46.343 10.4459 46.171 10.2963 45.9416C10.1894 45.7739 10.0056 45.6063 10.0056 45.4343C10.0014 45.2225 10.151 45.0108 10.2322 44.7991C10.2621 44.7197 10.2878 44.6403 10.322 44.5609C10.3305 44.5344 10.3562 44.5123 10.3775 44.4947C10.4716 44.4285 10.4032 44.4638 10.4245 44.5609C10.4716 44.7814 10.587 44.8344 10.7793 44.8299C10.9631 44.8255 10.9118 44.9182 10.8648 45.0417C10.7922 45.2402 11.0016 45.1431 11.0657 45.2049C11.1298 45.2622 11.1427 45.3196 11.0615 45.3284C10.7879 45.3461 10.8648 45.496 10.9289 45.6504C10.7879 45.7872 10.7836 45.9592 10.8264 46.1357C10.8306 46.1621 10.852 46.1974 10.8734 46.2062C10.8905 46.2151 10.9247 46.1886 10.9418 46.1709C11.0016 46.1092 11.0914 46.0518 11.1085 45.9769C11.1897 45.6416 11.3863 45.5137 11.7155 45.5137C11.8394 45.5798 11.9634 45.6151 12.0617 45.5843C12.0275 45.6637 12.0104 45.7386 12.0361 45.8225C12.0147 45.8092 12.0019 45.8004 11.9976 45.796C12.0147 45.818 12.0361 45.8357 12.0532 45.8578C12.0703 45.8975 12.0959 45.9328 12.1429 45.9725C12.1899 46.0121 12.1728 46.1004 12.1429 46.1798C12.1002 46.1489 12.0574 46.1136 12.0061 46.0827C12.0703 45.9372 11.7839 45.6284 11.7668 45.8048C12.0574 45.8401 11.7582 45.968 11.8181 46.0298C11.9164 46.0827 11.9976 46.193 12.0874 46.2989C12.0061 46.4797 11.9377 46.6606 11.8779 46.8459C11.7839 47.1414 11.7881 47.4237 12.0703 47.6266C12.3353 47.8163 12.4037 48.081 12.3524 48.3942C12.3396 48.478 12.3566 48.5706 12.3438 48.6589C12.3396 48.6986 12.3438 48.7339 12.3438 48.7691C12.3011 48.7603 12.2541 48.7515 12.2028 48.7338C12.2541 48.7868 12.3054 48.8265 12.3566 48.8618C12.3609 48.8882 12.3695 48.9147 12.378 48.9368C12.0403 48.7647 11.6941 48.478 11.3436 48.1692C11.07 47.9222 10.7922 47.6663 10.5314 47.4281C10.2792 47.1811 10.0484 46.9429 9.82183 46.7753C9.90732 46.8547 9.56108 46.6738 9.46704 46.4974C9.46704 46.8017 9.95862 47.3443 10.0356 47.7634C10.2407 47.9575 10.3647 48.1207 10.3903 48.2795C10.4801 48.3501 10.5571 48.3986 10.6212 48.4118C10.5186 48.7206 11.7924 49.5764 11.5402 49.6602C11.7668 49.7572 11.9719 49.7881 12.2797 49.9822C12.3481 49.9205 12.2199 49.8499 12.3182 49.7881C12.4763 49.894 12.6088 49.9557 12.6901 49.9337C12.3566 49.7043 12.2199 49.8366 11.9249 49.669C12.0361 49.5896 11.9078 49.4308 11.771 49.4176C11.6171 49.4661 11.942 49.572 11.8736 49.6293C11.7881 49.5676 11.7839 49.6778 11.6727 49.572C11.8907 49.4837 11.2196 49.2544 11.1683 49.0118C11.2153 48.9588 11.2709 48.9368 11.3564 48.9676C11.7112 49.2985 11.6 49.0559 11.8052 49.1176C11.9805 49.2235 11.8907 49.3073 12.0104 49.4088C12.1344 49.2808 12.4293 49.4661 12.6388 49.6382C12.9337 49.744 13.2415 49.7661 13.5279 49.8014C13.545 49.8146 13.5578 49.8278 13.5749 49.8411C13.7373 49.991 13.9297 50.1101 14.1135 50.2381C14.1562 50.2689 14.2161 50.2425 14.2204 50.1675C14.2289 49.9954 14.3016 49.7969 14.1819 49.6602C14.0195 49.4749 13.8955 49.2147 13.5792 49.2411C13.5108 49.2455 13.4082 49.1926 13.3654 49.1309C13.3056 49.0426 13.25 48.95 13.1902 48.8618C13.203 48.853 13.2244 48.8441 13.25 48.8397C13.203 48.8177 13.1688 48.7956 13.1346 48.7735C13.0449 48.6324 12.9594 48.4868 12.8696 48.3413C12.9551 48.1031 13.032 47.8604 13.1303 47.6266C13.1688 47.5428 13.1902 47.4678 13.1645 47.384C13.156 47.362 13.1175 47.3267 13.1175 47.3267C12.8055 47.5869 12.7542 47.212 12.6088 47.0973C12.4977 47.0135 12.4934 46.8723 12.502 46.74C12.6858 46.6738 12.7585 47.04 12.9679 46.9517C12.985 46.9694 13.0064 46.9914 13.0278 47.0091C13.1432 47.1811 13.3441 47.3929 13.5706 47.5561C13.8057 47.7325 14.028 47.8869 14.1349 47.984C14.1178 47.9443 14.2417 47.8913 14.2845 47.909C14.3999 48.0942 15.0112 48.178 14.7248 48.2221C14.9086 48.3545 14.9941 48.2927 15.1009 48.2751C14.6478 48.0942 14.293 47.7899 13.9639 47.7502C13.9083 47.5384 13.6219 47.4061 13.4082 47.2649C13.327 47.2076 13.2543 47.159 13.1987 47.1061C13.2329 47.1017 13.2757 47.0797 13.3099 47.0664C13.3227 47.062 13.3313 47.0179 13.3227 47.0047C13.2971 46.9517 13.25 46.912 13.2329 46.8591C13.2073 46.7797 13.1816 46.6826 13.2757 46.6297C13.3483 46.59 13.4296 46.5724 13.5108 46.6341C13.5749 46.6827 13.6433 46.7179 13.7117 46.7576C13.7202 46.8459 13.7074 46.9473 13.7502 47.0091C13.7886 47.0664 13.8869 47.0929 13.9639 47.1061C14.0793 47.1238 14.1947 47.1105 14.3059 47.1458C14.2503 47.1679 14.1904 47.1591 14.3272 47.2385C14.3785 47.2385 14.4384 47.2473 14.4982 47.2649C14.5196 47.2782 14.541 47.2826 14.5623 47.287C14.8829 47.4017 15.2634 47.6972 15.507 47.7413C15.3574 47.6399 15.2121 47.5472 15.071 47.4502C15.1565 47.4546 15.242 47.4546 15.3317 47.4502C15.3531 47.4502 15.3788 47.4193 15.3873 47.3973C15.3916 47.3884 15.3745 47.3531 15.3617 47.3443C15.242 47.2605 15.118 47.2649 14.9983 47.3443C14.9855 47.3531 14.9812 47.3708 14.9727 47.3884C14.8915 47.3355 14.8145 47.2782 14.7376 47.2252C14.8145 47.1679 14.8872 47.1017 14.9812 47.1194C15.0795 47.137 15.1821 47.1326 15.2847 47.1238C15.3745 47.2164 15.4728 47.3046 15.5839 47.3576C15.6139 47.2605 15.7849 47.4458 15.7977 47.3134C15.8105 47.2826 15.802 47.2517 15.7849 47.2208C15.9558 47.3134 16.1225 47.3002 16.2978 47.2958C16.4816 47.2914 16.597 47.3223 16.6654 47.5472C16.6996 47.6619 16.7808 47.7502 16.892 47.7987C16.8749 47.8648 16.939 47.9443 17.0202 48.0237C16.8364 48.0148 16.768 48.1957 16.5415 48.1207C16.6355 48.1736 16.7039 48.2266 16.7167 48.2883C16.644 48.3457 16.4859 48.2663 16.4346 48.3545C16.644 48.4074 16.8749 48.553 17.0843 48.7515C17.157 48.5662 17.4605 48.7868 17.546 48.8485C17.4434 48.9147 17.2852 48.8618 17.1527 48.7427C17.1869 48.9456 16.9262 48.6897 16.9219 48.8397C17.1185 48.9853 17.8452 48.8574 18.0076 49.2544C17.5417 49.0117 17.3878 49.1353 17.0758 49.0779C16.9176 49.2411 16.9689 49.3735 17.0971 49.4926L17.1356 49.3955C17.2553 49.4352 17.2681 49.4882 17.3365 49.5323C17.2895 49.5455 17.2468 49.5632 17.3109 49.6029C17.2639 49.6823 17.2382 49.5235 17.11 49.5014C17.2724 49.647 17.5417 49.7749 17.6956 49.9293C18.1914 50.0616 18.8454 50.5292 19.2601 50.5424C19.0976 50.4366 18.6916 50.3572 18.7001 50.141C18.8754 50.0087 19.0036 50.3483 19.1147 50.2116C18.8839 50.0749 18.7514 50.119 18.7044 49.9425C18.777 49.969 18.7771 49.8984 18.8369 49.9116C19.0463 50.0352 19.2686 50.2292 19.2045 50.3219C19.2216 50.2028 19.337 50.4719 19.384 50.3483C19.3114 50.2866 19.337 50.2028 19.3242 50.1278C19.0506 50.0396 18.8882 49.9205 18.8839 49.7705C19.243 49.7396 19.4824 49.9249 19.7517 49.9513C19.8029 50.0572 19.8671 50.1543 19.9483 50.2381C20.021 50.3131 20.0979 50.2954 20.1791 50.2645C20.2475 50.2381 20.286 50.1278 20.3886 50.194C20.5296 50.2822 20.7006 50.3395 20.816 50.4542C21.0768 50.7277 21.3803 50.913 21.7265 51.0497C21.7308 51.0497 21.7308 51.0541 21.7308 51.0586C21.7222 51.0718 21.7094 51.085 21.7051 51.1027C21.3803 51.0497 21.1494 51.1335 20.8246 50.9571C20.8374 50.988 20.863 51.0012 20.8844 51.0233C20.6792 50.9791 20.4698 50.9394 20.2561 50.8997C20.1107 51.1291 20.4997 50.8953 20.4826 51.085C20.3458 51.1203 19.897 51.0188 19.8884 50.86C19.991 50.9086 20.0979 50.9571 20.1962 50.988C20.1663 50.9042 20.0295 50.8512 19.9098 50.7983V50.7939C19.9055 50.7939 19.897 50.7895 19.8927 50.7895C19.82 50.7542 19.7517 50.7189 19.7217 50.666C19.679 50.688 19.3926 50.6439 19.5208 50.7145C19.5251 50.7145 19.5379 50.7189 19.5422 50.7233C19.1147 50.6263 18.7172 50.4763 18.3368 50.3616C17.8537 50.194 17.3921 50.0616 16.9133 50.0616C16.8193 49.8543 16.6312 49.7749 16.4346 49.7572C15.9259 49.6029 15.5327 49.2853 15.2676 49.0162C15.1052 49.2147 14.8658 48.6809 14.6264 48.6721C14.6307 48.6148 14.5922 48.5795 14.6777 48.5751C14.1691 48.5398 14.1349 47.9663 13.6005 47.781C13.8057 47.9398 13.3056 47.834 13.7117 48.0678C13.8228 48.0369 13.6518 47.8648 13.7886 47.9398C13.6604 48.1251 14.1092 48.3501 14.1733 48.6147C14.5623 48.6103 14.759 48.9676 15.1693 49.2147C15.1779 49.2985 15.1779 49.5543 15.3617 49.519C15.1308 49.4264 15.46 49.422 15.4985 49.3779C15.7207 49.4838 15.9003 49.6381 16.0841 49.7749C15.9558 49.8014 15.849 49.8411 15.7891 49.8808C15.8404 49.9028 15.8874 49.9205 15.9387 49.9425C15.9345 49.9822 15.943 50.0043 15.8703 50.0528C16.1097 50.2204 16.1696 50.1234 16.3064 50.141C16.1311 50.3307 16.9133 50.538 17.0629 50.7498C17.08 50.6704 17.1484 50.666 17.2767 50.7145C17.2339 50.7542 17.1826 50.7454 17.2382 50.8203C18.3624 51.2218 19.4011 51.5305 20.4313 51.8482C20.8117 51.8217 21.8462 51.9673 21.7265 52.329C22.979 52.7392 24.3212 52.823 25.7275 52.9465C26.202 52.7745 26.7833 52.8627 27.215 52.9024C27.1509 52.8936 27.3433 52.8098 27.463 52.8539C27.9075 53.0039 27.1595 53.1539 26.7876 53.1362C27.1125 53.1318 26.7961 53.3833 26.732 53.4715C26.0224 53.5421 25.4454 53.5112 24.8213 53.5773C24.6546 53.5553 24.6375 53.4582 24.4451 53.445C24.1673 53.5773 23.8894 53.3038 23.5646 53.295C23.3765 53.2862 23.2226 53.4318 23.0388 53.4053C22.8293 53.3788 22.6626 53.198 22.4874 53.1715C22.3805 53.1539 22.1882 53.1936 22.0984 53.1847C22.1069 53.1847 22.154 53.1186 22.1711 53.123C21.983 53.0921 21.8718 53.1803 21.7094 53.1627C21.6795 53.1583 21.6795 53.0436 21.6667 53.0392C21.4529 52.9245 21.1409 53.048 20.893 52.9995C20.7348 52.8495 21.1366 52.8848 20.8673 52.801C20.8246 52.9201 20.5638 52.8319 20.4527 52.8892C20.3202 52.6422 19.7474 52.726 19.8713 52.5451C19.6533 52.5187 19.3498 52.4966 19.0592 52.426C18.7728 52.3554 18.4907 52.276 18.3026 52.2011C18.371 52.2319 18.3496 52.2804 18.3325 52.329C17.8751 52.1613 17.7255 52.1084 17.4562 52.0864C17.469 52.0511 17.5203 52.0643 17.5417 52.0378C17.1955 51.9143 16.8706 51.8217 16.5927 51.6938C16.3149 51.5658 16.0712 51.4423 15.8746 51.3232C15.7977 51.3409 15.7336 51.3806 15.6395 51.3762C15.5284 51.2174 15.4771 51.235 15.3317 51.2659C15.242 51.1468 15.3531 51.0321 15.1565 51.0144C15.3147 51.2085 14.8744 51.0144 14.7419 50.9747C14.7718 50.9086 14.6008 50.8512 14.6863 50.7806C14.7077 50.6968 14.8744 50.8292 14.9086 50.7674C14.5239 50.5866 14.4768 50.688 14.37 50.8336C14.4854 50.9571 14.7205 51.0762 14.853 51.1997C15.0496 51.063 15.631 51.4864 15.7378 51.632C15.6609 51.5967 15.6609 51.6673 15.5925 51.6408C15.601 51.5967 15.6438 51.5482 15.5754 51.5085C15.1394 51.5526 14.8188 51.2526 14.3657 50.9968C14.4384 51.1997 14.2033 51.0409 14.1349 51.1688C14.6051 51.4026 15.0838 51.6276 15.507 51.8438C15.3488 51.6849 15.725 51.8261 15.802 51.8217C15.896 51.9276 16.1952 52.1878 16.2978 52.1834C16.2294 52.1437 16.2551 52.0996 16.2764 52.0511C16.4602 52.3378 16.8706 52.404 17.2083 52.5892C16.8236 52.4216 16.9732 52.576 16.674 52.5054C16.9304 52.6554 17.0672 52.7613 17.3109 52.7039L17.2767 52.8098C17.5887 52.8627 17.9563 53.0259 18.3453 53.198C18.5419 53.2818 18.7386 53.3744 18.9395 53.445C19.1447 53.5068 19.3498 53.5509 19.5507 53.5729C19.5507 53.617 19.5166 53.6744 19.5892 53.7009C20.2945 53.7406 21.2392 54.2478 21.6068 54.1596C21.6111 54.3096 21.2734 54.292 21.1323 54.1684C21.1281 54.4331 21.5427 54.3316 21.7137 54.3272C21.7051 54.3272 21.7137 54.4022 21.7009 54.4022C21.9702 54.4066 22.1112 54.2567 22.3933 54.2831C22.7524 54.314 22.8293 54.5258 23.3038 54.5302C23.1841 54.3361 23.7911 54.5875 23.9749 54.5125C23.6201 54.4552 23.8253 54.4375 24.1117 54.4684C24.3981 54.4905 24.7743 54.5213 24.7657 54.6493C24.5477 54.6272 24.5092 54.7198 24.3596 54.7375C24.7272 54.7419 24.552 54.786 24.6161 54.9404C24.9153 54.9139 24.9453 55.0198 25.1504 55.0419C25.1248 54.9228 24.8555 54.9228 24.7572 54.8345C24.8469 54.8389 24.9025 54.8257 24.9581 54.8081C25.112 54.861 25.206 55.0551 25.3556 54.9007C25.3471 54.9669 25.3684 55.0198 25.4197 55.0551C24.8769 55.0727 24.505 55.0904 24.1416 55.0771C23.7826 55.0374 23.4321 54.9669 22.9362 54.8213C22.6284 54.8345 22.3207 54.7551 22.0129 54.6846C21.7009 54.614 21.3888 54.561 21.0597 54.5743C21.0639 54.5037 20.8459 54.4949 20.8844 54.4155C20.0423 54.3096 19.2558 53.7317 18.5291 53.7803C18.7087 53.8552 18.978 53.8905 18.9609 53.9964C18.7557 53.9479 17.8195 53.7273 18.1017 53.5509C17.9435 53.5156 17.7939 53.4979 17.5802 53.4009C17.4348 53.5156 17.9093 53.5288 17.8666 53.6259C17.5716 53.5376 16.9005 53.3656 16.7552 53.0965C16.1696 52.898 15.6823 52.6466 15.242 52.4304C14.806 52.2055 14.4255 51.9761 14.1092 51.7026C13.9895 51.857 14.0237 51.5658 13.8998 51.5129C13.7288 51.4688 13.8741 51.707 13.7587 51.6452C13.6989 51.61 13.6775 51.632 13.6262 51.61C13.3868 51.5041 13.4595 51.4026 13.327 51.3012C13.2073 51.3497 12.938 51.1468 12.7114 51.0144C12.8012 50.7409 12.3011 50.6395 12.0745 50.4851C11.6043 50.1895 11.1256 49.744 10.6468 49.3514C10.1809 48.9456 9.71496 48.5883 9.3901 48.2927C9.8432 48.8309 10.0997 48.875 10.4502 49.3691C10.8135 49.5543 11.1683 49.8411 11.5274 50.1454C11.895 50.4366 12.284 50.7189 12.6687 50.9439C12.6131 51.0189 12.7029 51.0983 12.6943 51.1777C12.6003 51.1821 12.4464 51.0938 12.3481 51.0938C12.5362 51.3056 13.2671 51.482 13.545 51.9099C13.6305 51.8217 13.7929 51.9937 13.9254 52.0731C14.2332 51.9452 15.1437 52.4128 15.4771 52.6245C15.4343 52.6819 14.9171 52.3599 15.0795 52.5142C15.2634 52.6025 15.4557 52.6907 15.4087 52.7966C15.2933 52.7657 15.0625 52.5804 15.024 52.651C15.1992 52.7966 15.631 52.9289 15.4343 53.0965C15.6865 53.2465 15.4044 52.9245 15.678 53.048C15.6823 53.0833 15.7165 53.1142 15.7891 53.1406C15.8062 53.3391 15.6096 53.2553 15.507 53.295C15.7507 53.52 15.8233 53.3877 15.8618 53.3391C16.02 53.5244 15.6481 53.3921 15.7806 53.5465C16.0242 53.7361 16.3234 53.8508 16.4688 53.9038C16.3961 53.8685 16.379 53.8244 16.3619 53.7847C16.4688 53.8508 16.6697 53.7847 16.6868 53.9082C16.6098 53.8861 16.503 53.8332 16.4773 53.8685C16.8107 54.1023 17.4348 54.239 17.6015 54.486C17.7768 54.4993 17.5161 54.3361 17.7127 54.367C18.1059 54.4508 18.0162 54.614 18.2641 54.7243C18.3154 54.6846 18.2385 54.5125 18.3795 54.5699C18.6061 54.6757 19.0421 54.6934 18.9523 54.8566C18.8754 54.8654 18.4308 54.7507 18.5932 54.8389C18.9908 54.8742 19.2387 55.0242 19.4396 54.9095C19.7004 55.0242 19.3456 55.0904 19.5935 55.1786C19.6918 55.183 19.6362 55.0419 19.7602 55.0683C19.8329 55.1566 20.5211 55.4962 20.2176 55.2624C20.4997 55.3683 20.5553 55.3771 20.9614 55.483C20.9827 55.43 20.9614 55.3418 21.0554 55.3506C21.6154 55.5403 22.1582 55.5977 22.6797 55.6727C23.2012 55.7344 23.7056 55.805 24.2143 55.902C24.2442 55.8403 24.1203 55.8006 24.2229 55.7918C24.6076 55.8712 24.9239 55.9417 25.1889 55.805C25.1889 55.8579 25.1547 55.8844 25.1162 55.9153C25.4026 55.8623 25.7617 55.9594 26.0182 56.03C25.8258 56.1711 25.471 56.03 25.3855 56.2682C25.8728 56.2682 26.0866 55.9682 26.6423 56.052C26.7363 55.9682 26.4627 55.9064 26.638 55.902C26.8474 55.955 26.9073 55.9462 27.0526 55.8668C27.0526 55.9947 27.2578 55.9947 27.4031 56.0388C27.946 55.8712 28.4974 56.0961 28.9847 55.8359C29.2626 55.8403 29.5703 55.8447 29.8909 55.8182C30.2115 55.7785 30.5407 55.73 30.8613 55.6682C31.5067 55.5491 32.1137 55.3992 32.5326 55.2492C32.6138 55.333 32.9173 55.1962 32.913 55.3506C33.2678 55.1168 33.5371 55.2845 33.7722 55.0463C33.6867 55.0639 33.6098 55.0772 33.6184 55.011C33.7722 54.936 33.7893 54.9404 34.0757 54.8478C34.0971 54.9007 34.1014 54.9757 34.2424 54.9184C34.3921 54.6272 34.9905 54.7066 35.3239 54.6493C35.3196 54.5743 35.2085 54.6052 35.1529 54.5831C35.4094 54.4949 35.8668 54.2787 35.9907 54.4419C35.8369 54.5434 35.7086 54.3758 35.653 54.5302C35.7471 54.5037 35.7556 54.5787 35.8198 54.5875C36.4652 54.1199 37.4612 53.8023 37.9314 53.6435C38.0981 53.5773 38.1237 53.423 38.2007 53.3877C38.3973 53.2994 38.6239 53.3744 38.9359 53.145C38.8803 53.1847 39.0257 53.1054 39.1838 53.0171C39.248 52.9862 39.8592 52.5848 40.09 52.6333C40.1627 52.7039 39.6284 52.9333 39.8336 52.8936C40.0516 52.7657 40.1071 52.6863 40.3337 52.6333C40.261 52.5628 40.3251 52.4834 40.4235 52.4304C40.5175 52.3687 40.65 52.3202 40.7227 52.3246C40.5645 52.4966 40.291 52.651 40.2653 52.801C40.6329 52.5584 41.2271 51.9584 41.351 52.2805C41.334 52.2496 41.4323 52.1746 41.4707 52.2055C41.2741 52.4393 41.4109 52.4437 41.2442 52.6554C41.552 52.2716 41.9281 52.0952 42.2872 51.9011C42.642 51.7026 42.9968 51.5173 43.1848 51.0674C43.2404 51.1159 43.1677 51.1821 43.2148 51.2306C43.3943 51.0983 43.3088 51.0144 43.5653 50.8645C43.5952 50.9306 43.6764 50.8821 43.7106 50.9394C43.8474 50.8159 44.0098 50.6836 44.0611 50.5733C43.8217 50.7806 43.6679 50.8027 43.5567 50.7321C43.9628 50.4851 44.044 50.2116 44.4971 50.0881C44.2535 50.2381 44.3988 50.3086 44.1509 50.4542C44.2578 50.4807 44.3133 50.6263 44.5142 50.4498C44.4886 50.4013 44.4116 50.3572 44.48 50.291C44.5399 50.4454 45.3264 49.9205 45.6128 49.6382C45.5786 49.4838 45.4119 49.6823 45.3606 49.5676C45.4504 49.5411 45.5743 49.4264 45.6983 49.3029C45.647 49.4705 45.6769 49.4308 45.7923 49.519C45.9847 49.3867 45.7838 49.3602 45.9291 49.2411C46.0146 49.3514 46.254 49.0382 46.3694 49.0823C46.5147 48.7736 46.6515 48.7868 46.6814 48.8838C46.8097 48.6192 46.9123 48.5706 46.9721 48.3501C47.1089 48.3192 47.002 48.3898 47.0747 48.4559C47.2713 48.2133 47.2585 48.2486 47.4637 48.1295C47.515 48.0236 47.515 47.931 47.5577 47.8163C47.6988 47.7722 47.7715 47.6134 47.686 47.8384C48.2716 47.2914 48.1348 46.8062 48.4468 46.5768C48.2716 46.365 48.5665 46.1842 48.8102 46.0386C48.8102 45.9107 48.5836 46.0915 48.699 45.946C48.8871 45.8445 48.994 45.721 49.135 45.474C49.2633 45.496 49.1564 45.6372 49.1949 45.7034C49.2419 45.5357 49.43 45.3946 49.4214 45.3328C49.3445 45.4034 49.2718 45.4387 49.2077 45.4387C49.3103 45.3019 49.2846 45.2314 49.4343 45.0681L49.5197 45.1343C49.7164 44.5212 50.3533 43.9389 50.3704 43.6257C50.473 43.4184 50.5328 43.5551 50.6269 43.4536C50.5884 43.4228 50.5414 43.436 50.4944 43.4536C50.5414 43.2728 51.1911 42.6861 50.8021 42.9684C50.9859 42.6861 51.1612 42.6729 51.1911 42.4479C51.0971 42.5891 51.0244 42.5405 51.0971 42.3905C51.0928 42.5052 51.1697 42.4964 51.2638 42.3244C51.2467 42.2317 51.3065 42.0906 51.3493 41.9583C51.3364 42.1744 51.5715 41.7068 51.5929 41.601C51.5587 41.6451 51.5202 41.7245 51.4903 41.7068C51.5502 41.5745 51.6741 41.2039 51.8109 41.1466C51.8323 41.2084 51.6784 41.3892 51.734 41.4333C51.9092 41.2525 51.8494 41.129 51.952 40.8996C52.2042 40.9084 52.1144 40.1806 52.3923 40.2379C52.2042 40.4673 52.1828 40.7231 52.1401 40.9393C52.093 41.151 52.0417 41.3319 51.8323 41.4113C52.0075 41.5215 51.7767 41.6715 51.6741 41.9847C51.8152 41.9715 51.6955 42.1259 51.7297 42.1832C51.9221 41.9053 51.7981 41.9847 51.8109 41.8965C51.8793 41.8568 51.952 41.6715 52.0161 41.7598C51.9776 41.8347 51.9092 41.9362 51.9392 41.9671C52.0631 41.6892 52.1785 41.5789 52.2854 41.5745C52.341 41.3848 52.4265 41.2481 52.5376 41.0628C52.6402 40.8687 52.7641 40.6305 52.9138 40.2511C52.9138 40.1012 52.7684 40.2952 52.8454 40.057C53.3882 39.2586 53.4737 38.3499 53.7729 37.6794C53.7174 37.4985 53.5336 37.7323 53.6404 37.3971C53.7473 37.2471 53.8029 37.3177 53.8713 37.4015C53.9567 36.7222 54.303 36.3869 54.4953 35.6855C54.2816 35.315 54.8117 34.4195 54.6749 33.9255C54.645 34.2651 54.5424 34.6886 54.3799 34.8209C54.3201 34.5254 54.474 33.6961 54.692 33.8505C54.6578 33.4402 55.004 33.1623 54.8159 32.9903C55.0767 32.9594 55.1964 32.1389 55.1836 31.6581C55.1836 31.7287 55.2391 31.5567 55.2605 31.3758C55.3161 30.8994 55.393 30.3656 55.4486 29.8407C55.4699 29.4305 55.4657 29.0202 55.4315 28.6453C55.47 28.6453 55.5127 28.6497 55.564 28.6673C55.5341 28.2174 55.5041 27.7719 55.4742 27.3307C55.4828 27.3396 55.4913 27.344 55.5127 27.3351C55.4529 27.1146 55.47 27.0352 55.44 26.8279C55.4272 26.6779 55.4187 26.5323 55.4058 26.3823C55.4785 26.1971 55.5341 25.8618 55.5512 25.6721C55.5597 25.8133 55.6538 25.7559 55.6367 25.9544C55.5854 26.272 55.6067 26.6646 55.7435 26.894C55.7179 27.044 55.6837 27.0484 55.6324 26.969C55.7222 27.816 55.6067 28.4468 55.7606 29.2231C55.6367 29.029 55.6324 29.9333 55.7692 29.7348C55.6666 30.2245 55.5597 30.8509 55.5041 31.4728C55.4742 31.786 55.4529 32.0948 55.4486 32.386C55.4443 32.5315 55.4443 32.6727 55.4486 32.805C55.4443 32.9374 55.4443 33.0609 55.4486 33.18C55.4956 32.8183 55.7008 32.183 55.6025 31.861C55.735 32.0507 55.6751 31.5434 55.6196 31.4905L55.7264 31.5037C55.9573 29.9333 55.9829 28.2659 56 26.6558ZM45.7752 6.25846C45.8992 6.1967 45.9761 6.3908 46.0231 6.49225C45.9548 6.54519 45.7923 6.30698 45.7752 6.25846ZM15.7934 51.6673C15.8062 51.4732 16.1054 51.7555 16.1311 51.707C16.285 51.8526 15.9473 51.7687 15.7934 51.6673ZM17.8666 52.9245C17.9563 52.7304 18.0675 52.9862 18.3154 53.048C18.2641 53.1186 18.0034 52.951 17.8666 52.9245ZM18.3881 52.3599C18.418 52.2628 18.7001 52.3775 18.7642 52.4569C18.73 52.5319 18.4992 52.3775 18.3881 52.3599ZM22.8635 54.2567C22.9234 54.2346 23.0174 54.239 23.1286 54.2567C23.1157 54.3096 23.1072 54.3625 23.1799 54.3802C23.1243 54.4552 22.7738 54.3537 22.8635 54.2567ZM24.9581 54.6713C24.9153 54.5655 25.0949 54.6007 25.0949 54.5302C24.5734 54.3978 24.0305 54.4772 23.8638 54.1729C24.3126 54.3052 24.4964 54.1993 24.8469 54.142C24.9324 54.1817 24.9709 54.2478 25.1034 54.2655C25.0008 54.3493 24.941 54.314 24.7743 54.2875C24.8213 54.4331 24.9965 54.5169 25.2915 54.539C25.3385 54.6801 25.1846 54.6978 24.9581 54.6713ZM53.2643 33.9563C53.3455 33.9652 53.2215 34.199 53.2172 34.3004C53.1959 34.2651 53.1745 34.2254 53.166 34.1725C53.1916 34.1107 53.2172 34.0534 53.2386 33.9916C53.2472 33.9916 53.2557 33.9828 53.2643 33.9563ZM52.6829 38.7866C52.5376 39.038 52.5761 39.0072 52.4478 39.3071C52.341 39.3909 52.2298 39.2718 52.3709 39.0381C52.4777 39.3248 52.482 38.7425 52.6829 38.7866ZM35.1486 52.6466C35.1315 52.7392 34.8152 52.801 34.6699 52.8539C34.7255 52.651 34.8922 52.7304 35.1486 52.6466ZM31.7589 54.2081C31.3913 54.2434 31.2203 54.1905 30.81 54.1773C30.998 53.9788 31.387 54.067 31.7717 53.9391C31.7675 54.0317 31.6948 54.0979 31.7589 54.2081ZM29.7499 54.2346C29.6986 54.3625 29.5276 54.239 29.4848 54.2214C29.4549 54.1376 29.6687 54.1684 29.6644 54.0934C29.8952 54.0714 29.5233 54.2611 29.7499 54.2346ZM30.5407 54.1861C30.5107 54.2787 30.3398 54.3184 30.3098 54.4111C30.2072 54.314 29.7456 54.4949 29.6986 54.3537C30.0021 54.4199 30.1987 54.1596 30.5407 54.1861ZM30.0534 53.6523C29.8439 53.7053 29.6558 53.7758 29.3096 53.8244C29.16 53.6347 29.4592 53.5641 29.8354 53.4671C30.2115 53.3788 30.6732 53.3171 30.8527 53.2642C31.1348 53.3171 31.2118 53.4582 30.8399 53.5685C30.8484 53.5376 30.8997 53.52 30.8912 53.4847C30.4851 53.5509 30.2628 53.5994 30.0534 53.6523ZM29.425 54.2655C28.9505 54.3934 27.8434 54.3978 28.1084 54.2037C28.4461 54.3405 28.8779 54.1508 29.425 54.2655ZM31.1989 53.3965C31.1605 53.3038 31.3144 53.2774 31.4298 53.2421C31.4469 53.3391 31.3229 53.445 31.1989 53.3965ZM31.682 52.2628C31.2417 52.329 30.7971 52.3731 30.4552 52.4216C30.3056 52.4834 30.5321 52.576 30.6646 52.5407C30.6219 52.6554 30.4039 52.5716 30.297 52.6025C30.2799 52.5363 30.3611 52.5142 30.3355 52.4437C30.297 52.3643 30.032 52.479 29.9038 52.4745C30.2927 52.2275 30.6988 52.1393 31.169 52.0819C31.4041 52.0555 31.6563 52.029 31.9214 51.9981C32.1864 51.954 32.4685 51.8834 32.7763 51.7952C32.7848 51.8482 32.7934 51.9011 32.866 51.8878C32.7079 51.9717 32.5241 52.0467 32.3232 52.1128C32.2248 52.1481 32.118 52.179 32.0111 52.2055C31.9 52.2231 31.7931 52.2452 31.682 52.2628ZM17.1442 47.8163C17.1698 47.8119 17.1997 47.8163 17.2254 47.8296C17.2211 47.8384 17.2254 47.8472 17.2168 47.856C17.1356 47.8384 17.0971 47.8296 17.0758 47.8163C17.1014 47.8163 17.1228 47.8207 17.1442 47.8163ZM13.7117 46.3121C13.6946 46.3298 13.6732 46.3474 13.6561 46.365C13.639 46.3562 13.6219 46.3474 13.6048 46.3386C13.6134 46.3253 13.6219 46.3121 13.6305 46.2989C13.639 46.2856 13.6476 46.2724 13.6561 46.2592C13.6732 46.2768 13.6903 46.2945 13.7117 46.3121ZM24.6546 5.09831C24.6076 5.14684 24.5349 5.17331 24.4238 5.18213C24.4067 5.18213 24.3896 5.18213 24.3725 5.18213C24.3254 5.16448 24.2485 5.17772 24.1716 5.18654C24.3254 5.10273 24.4879 5.08508 24.6546 5.09831ZM54.4526 19.8758C54.4996 20.039 54.4612 20.1096 54.4184 20.1758C54.3671 19.9773 54.3543 19.77 54.2944 19.5714C54.2987 19.5317 54.303 19.4965 54.3115 19.47C54.4312 19.8846 54.2731 19.8493 54.4526 19.8758ZM54.5424 20.2243C54.5637 20.3522 54.5851 20.4449 54.6022 20.5287C54.5937 20.5243 54.5894 20.5199 54.5766 20.5199C54.5509 20.4846 54.5295 20.4493 54.5124 20.414C54.4782 20.2993 54.4526 20.1978 54.5424 20.2243ZM54.3073 29.5628C54.3158 29.4658 54.2987 29.4084 54.2688 29.3731C54.2816 29.2099 54.303 29.0555 54.3372 28.9408C54.3628 28.9849 54.3842 29.0335 54.4056 29.082C54.4141 29.0158 54.3885 28.9188 54.3799 28.8305C54.3842 28.8217 54.3885 28.8085 54.3928 28.7997C54.3885 28.782 54.3842 28.76 54.3799 28.7379C54.3842 28.707 54.397 28.6806 54.4227 28.6629C54.4312 28.7952 54.521 28.7908 54.4782 29.0158C54.2346 29.2849 54.397 29.1349 54.3073 29.5628ZM31.8444 5.47768C31.8017 5.4865 31.7803 5.47327 31.7675 5.45563C31.7931 5.44681 31.823 5.44239 31.853 5.43357C31.853 5.45563 31.8487 5.47768 31.8444 5.47768ZM49.2676 12.6062C49.1564 12.5973 49.0624 12.5665 49.0538 12.4253C49.0538 12.4209 49.0538 12.4209 49.0538 12.4165C49.1265 12.4738 49.1992 12.5356 49.2676 12.6062ZM54.2389 27.4057C54.2303 27.2954 54.2218 27.1808 54.2132 27.0661C54.2175 27.0572 54.2218 27.0484 54.2218 27.0396C54.2474 26.9558 54.3201 26.8852 54.3885 26.8146C54.3885 26.9293 54.3885 27.0484 54.3928 27.1631C54.4013 27.419 54.4184 27.666 54.4569 27.8998C54.4013 27.9042 54.3329 27.891 54.3415 28.0365C54.397 28.0498 54.4782 28.0145 54.4825 28.1071C54.4569 28.3144 54.4141 28.4821 54.35 28.6144C54.2773 28.2747 54.256 27.8513 54.2389 27.4057ZM54.3714 26.4176C54.3714 26.4353 54.3714 26.4573 54.3757 26.475C54.3671 26.4529 54.3671 26.4353 54.3714 26.4176ZM50.8235 14.3442C50.7423 14.256 50.7594 14.1324 50.862 14.0486C50.8705 14.0442 50.8791 14.0398 50.8919 14.0398C51.0116 14.1898 51.1227 14.3618 51.2296 14.5559C51.0757 14.5868 50.9902 14.5295 50.8235 14.3442ZM50.7038 13.8325C50.5798 13.7972 50.4986 13.7134 50.4559 13.5855C50.5414 13.6604 50.6226 13.7398 50.7038 13.8325ZM54.2645 29.4349C54.2773 29.5187 54.2731 29.6113 54.256 29.704C54.256 29.6157 54.256 29.5231 54.2645 29.4349ZM55.0724 22.946C55.0895 22.8931 55.1152 22.8357 55.1451 22.7828C55.1494 22.9019 55.1323 23.0034 55.0852 23.0431C55.081 23.0122 55.0767 22.9769 55.0724 22.946ZM54.9869 22.2534C54.9869 22.2314 54.9869 22.2005 54.9912 22.1829C55.0168 22.2138 55.0382 22.2623 55.0596 22.324C55.0382 22.3064 55.0126 22.2843 54.9869 22.2534ZM54.7689 21.4947C54.6792 21.6976 54.8074 21.9403 54.8715 21.9138C54.863 22.0064 54.8373 22.0373 54.8074 22.0417C54.7775 22.002 54.7475 21.9623 54.7219 21.9226C54.7134 21.8961 54.7091 21.8697 54.7048 21.8432C54.6706 21.7991 54.6321 21.7594 54.5937 21.7241C54.5723 21.6844 54.5509 21.6491 54.5424 21.6271C54.5124 21.5521 54.5979 21.4506 54.6877 21.4638C54.7091 21.4683 54.7347 21.4727 54.7561 21.4815C54.7646 21.4859 54.7646 21.4903 54.7689 21.4947ZM54.2602 19.4788C54.256 19.4744 54.256 19.4656 54.2517 19.4568C54.2389 19.4259 54.2389 19.4038 54.2431 19.3774C54.2517 19.4126 54.256 19.4479 54.2602 19.4788ZM25.0692 5.19095C25.0265 5.18654 24.9923 5.17772 24.9581 5.16007C24.9923 5.16889 25.0307 5.17772 25.0692 5.19095ZM33.7509 52.726C33.8022 52.8848 33.5585 52.7613 33.3875 52.8627C33.4474 52.7525 33.5842 52.7436 33.7509 52.726ZM47.7543 45.796C47.8227 45.9195 47.5663 46.0033 47.4167 46.2415C47.3739 46.193 47.3012 46.2548 47.2628 46.1974C47.4338 46.0474 47.6047 45.8842 47.7543 45.796ZM48.0878 45.3505C48.122 45.3902 48.1604 45.4254 48.216 45.3681C48.2972 45.4387 48.0279 45.7254 47.9296 45.7607C47.8826 45.6681 47.9424 45.5269 48.0878 45.3505ZM53.3797 33.6167C53.3925 33.6255 53.4053 33.6299 53.4182 33.6387C53.3754 33.7402 53.3583 33.749 53.3369 33.7358C53.3498 33.6917 53.3669 33.6564 53.3797 33.6167ZM54.1662 30.8112C54.1619 30.7538 54.1577 30.7009 54.1491 30.6524C54.1705 30.6303 54.1918 30.6127 54.2132 30.6038C54.2089 30.67 54.1918 30.7406 54.1662 30.8112ZM54.2987 30.3612C54.2859 30.273 54.2731 30.1583 54.2645 30.0348C54.2859 29.9333 54.3115 29.8407 54.3671 29.7084C54.35 30.0216 54.3201 30.123 54.3329 30.3524C54.3244 30.3568 54.3115 30.3612 54.2987 30.3612ZM55.1622 24.2385C55.1964 24.0665 55.2092 23.8944 55.1793 23.6827C55.3802 23.7665 55.2947 24.2605 55.1921 24.437C55.1836 24.3708 55.1707 24.3047 55.1622 24.2385ZM55.1066 23.1842C55.1707 23.2636 55.2092 23.418 55.2391 23.5989C55.1109 23.6827 55.0681 23.2989 55.1066 23.1842ZM54.5937 19.6861L54.4526 19.7258C54.4013 19.6067 54.4825 19.4082 54.3628 19.3774C54.3372 19.1347 54.4526 19.4347 54.4868 19.4171C54.5039 19.3244 54.4569 19.2715 54.397 19.2009C54.4227 19.1788 54.444 19.1568 54.4654 19.1347C54.5552 19.2803 54.6193 19.4612 54.5937 19.6861ZM54.3158 18.4863C54.2688 18.4819 54.2431 18.354 54.2175 18.2525C54.2218 18.2525 54.2261 18.2525 54.2303 18.2525C54.2645 18.2481 54.2944 18.2216 54.3158 18.1907C54.4056 18.3892 54.303 18.3716 54.3158 18.4863ZM53.7302 17.7893C53.743 17.7805 53.7772 17.7849 53.7943 17.7981C53.9183 17.882 53.9995 17.9878 54.0294 18.1466C54.0422 18.2216 54.1021 18.2481 54.1705 18.2525C54.1833 18.3098 54.1918 18.3716 54.1918 18.451C54.1576 18.4598 54.1662 18.5216 54.1406 18.5436C54.0508 18.2216 53.8798 18.3319 54.0893 18.4863C54.0978 18.5304 54.1064 18.5745 54.1149 18.6186C53.9995 18.6142 53.8841 18.6142 53.7687 18.601C53.7345 18.5966 53.6832 18.5084 53.6917 18.4687C53.7174 18.3628 53.8114 18.2569 53.7986 18.1687C53.7815 18.0672 53.6575 17.9922 53.6832 17.8599C53.6832 17.8334 53.7046 17.807 53.7302 17.7893ZM52.5077 15.4558C52.4649 15.4337 52.4222 15.4161 52.3794 15.4382C52.3538 15.372 52.3239 15.3191 52.2982 15.2705C52.2897 15.2264 52.2854 15.1779 52.2854 15.1338C52.3538 15.2308 52.435 15.3499 52.5077 15.4558ZM47.8569 8.8743C47.8826 8.90518 47.9125 8.94046 47.9382 8.97134C47.9339 8.98017 47.9296 8.9934 47.9211 9.00222C47.7714 8.97135 47.6988 8.76843 47.609 8.57434C47.6902 8.6758 47.7715 8.77726 47.8569 8.8743ZM45.3777 8.05823C45.3905 8.06705 45.3991 8.0847 45.4076 8.10234C45.3777 8.08911 45.3478 8.07588 45.3178 8.06705C45.3307 8.04941 45.352 8.04058 45.3777 8.05823ZM23.6757 5.25712C23.6757 5.288 23.6757 5.31888 23.68 5.34535C23.7484 5.34535 23.7911 5.30564 23.8168 5.25271C23.9322 5.25271 24.0476 5.25712 24.1673 5.26153C24.1245 5.35858 24.039 5.42033 23.9578 5.47768C23.821 5.57031 23.7227 5.51738 23.6757 5.36299C23.6287 5.38063 23.5774 5.39387 23.5304 5.41592C23.3038 5.53502 23.2226 5.53062 23.1029 5.37181C23.0986 5.3674 23.0944 5.35858 23.0901 5.35417C23.2824 5.288 23.4748 5.26594 23.6757 5.25712ZM22.0043 5.53062C22.201 5.49092 22.3891 5.47327 22.56 5.47327C22.5173 5.51297 22.4617 5.53944 22.372 5.53503C22.3164 5.53503 22.2395 5.53503 22.2138 5.57032C22.0215 5.82175 21.7137 5.61442 21.5 5.77323C21.3503 5.88351 21.2648 5.82616 21.1922 5.74235C21.4658 5.64531 21.7436 5.57914 22.0043 5.53062ZM7.79141 41.0275C7.76576 41.0231 7.74439 40.9393 7.74866 40.8952C7.75294 40.8731 7.76576 40.8511 7.77858 40.829C7.79141 40.8069 7.80851 40.7893 7.82133 40.7672C7.8427 40.8113 7.8769 40.851 7.88545 40.8952C7.89827 40.9657 7.88973 41.0495 7.79141 41.0275ZM8.57366 43.2463C8.56511 43.286 8.51381 43.3125 8.48389 43.3478C8.46679 43.3257 8.4326 43.3081 8.4326 43.286C8.42405 43.2066 8.42404 43.1272 8.41977 43.0478C8.4155 43.0478 8.41122 43.0478 8.40695 43.0478C8.40695 43.0434 8.40695 43.0346 8.40695 43.0302C8.36848 43.0125 8.33 42.9949 8.29581 42.9728C8.28726 42.9684 8.30008 42.9155 8.30436 42.9155C8.3984 42.9022 8.40267 42.964 8.40695 43.0302C8.41122 43.0302 8.4155 43.0346 8.41977 43.0346C8.41977 43.039 8.41977 43.0434 8.41977 43.0478C8.54373 43.0478 8.60785 43.114 8.57366 43.2463ZM9.09088 43.7316C9.04813 43.7051 9.00539 43.6786 8.95837 43.6522C9.00539 43.6257 9.05241 43.5816 9.09943 43.586C9.14645 43.586 9.18919 43.6345 9.23621 43.6654C9.18919 43.683 9.1379 43.7095 9.09088 43.7316ZM9.43712 44.1109C9.43284 44.1771 9.42857 44.2433 9.33025 44.2256C9.32598 44.2256 9.31316 44.1727 9.3217 44.1683C9.3559 44.1462 9.39437 44.1286 9.43712 44.1109C9.43712 44.1065 9.43712 44.0977 9.43712 44.0933C9.44139 44.0933 9.44567 44.0933 9.44994 44.0933C9.44567 43.9874 9.43284 43.8815 9.51833 43.7977C9.56963 43.7492 9.73634 43.7492 9.73206 43.7977C9.72779 43.8418 9.71496 43.8948 9.68932 43.9256C9.6252 44.0051 9.56963 44.1021 9.44567 44.0933C9.44567 44.0977 9.44567 44.1021 9.44567 44.1065C9.44567 44.1065 9.44139 44.1109 9.43712 44.1109ZM10.1125 44.2741C9.99281 44.5565 9.74061 44.7726 9.71497 45.1078C9.71497 45.1255 9.61238 45.152 9.56963 45.1387C9.52689 45.1255 9.46277 45.0593 9.46704 45.0284C9.54826 44.6976 9.68932 44.3888 9.89022 44.1153C9.90732 44.0933 9.99709 44.1153 10.0484 44.1286C10.0484 44.1286 10.0484 44.1286 10.0527 44.1286C10.0655 44.1418 10.0783 44.155 10.0954 44.1683C10.0997 44.1771 10.1039 44.1815 10.1125 44.1859C10.1082 44.2212 10.1253 44.2521 10.1125 44.2741ZM12.673 46.4665C12.643 46.5327 12.6003 46.5591 12.5362 46.5371C12.5533 46.4797 12.5875 46.4312 12.673 46.418C12.8183 46.3959 12.8824 46.4886 12.8653 46.6209C12.8653 46.6385 12.8696 46.6474 12.8696 46.6606C12.8226 46.6121 12.767 46.5503 12.673 46.4665ZM13.7416 46.74C13.7416 46.7444 13.7373 46.7532 13.7373 46.7576L13.7245 46.7444C13.7288 46.7444 13.7331 46.7444 13.7416 46.74C13.7459 46.7268 13.7502 46.7135 13.7544 46.7003C13.7673 46.7091 13.7801 46.7135 13.7886 46.7223C13.7715 46.7312 13.7544 46.7356 13.7416 46.74ZM19.5166 51.3894C18.9865 51.138 18.4693 50.8865 17.8409 50.7674C17.6357 50.6704 17.4348 50.5336 17.2168 50.3925C17.1955 50.3748 17.1698 50.3572 17.1442 50.3439C17.2425 50.366 17.3408 50.3881 17.4348 50.4101C17.6699 50.463 17.8965 50.516 18.123 50.5866C18.3539 50.6483 18.5932 50.7277 18.8497 50.8468C19.2815 50.6483 19.8927 51.4379 20.3031 51.3806C20.1406 51.1115 20.8331 51.332 21.2307 51.3806C21.1665 51.4997 21.2136 51.6541 21.2392 51.8702C20.6066 51.804 20.0594 51.5967 19.5166 51.3894ZM27.5143 52.7745C27.6425 52.6907 27.7194 52.8627 27.9503 52.823C27.946 52.7877 27.8733 52.801 27.822 52.7922C27.8349 52.7392 28.0058 52.7701 28.0016 52.7083C27.9289 52.6289 27.6126 52.7172 27.4459 52.7039C27.6981 52.5187 28.3264 52.5319 28.5316 52.4128C28.6342 52.4878 28.5915 52.6113 28.553 52.6378C28.6214 52.7613 28.6898 52.6334 28.8052 52.6951C28.9719 52.6334 28.6043 52.6334 28.6641 52.5187C29.1343 52.4834 29.2455 52.5231 29.4506 52.3907C29.6516 52.4216 29.4506 52.4569 29.8183 52.3731C29.8824 52.6245 29.4335 52.4966 29.2882 52.5892C29.5148 52.748 30.0619 52.3378 30.1004 52.5936C29.908 52.6157 29.7071 52.6598 29.4977 52.7039C29.2882 52.7348 29.0702 52.7701 28.8479 52.801C28.4077 52.8583 27.946 52.8892 27.5143 52.7745ZM27.6553 54.3008C27.5955 54.4155 27.8049 54.3581 27.9204 54.3625C27.7066 54.4243 27.3561 54.4419 26.9671 54.4552C26.5739 54.4419 26.1421 54.4199 25.7574 54.4464C26.2191 54.1684 26.9628 54.4331 27.6553 54.3008ZM25.5608 54.5478C25.9327 54.6096 26.0224 54.5831 26.42 54.6184C26.0481 54.4287 27.245 54.5258 27.3433 54.614C27.0312 54.7198 26.6636 54.6978 26.3174 54.6757C25.9711 54.6581 25.6506 54.6404 25.424 54.7287C25.3684 54.6096 25.5309 54.6184 25.5608 54.5478ZM25.3513 54.8786C25.4069 54.7507 25.5864 54.8478 25.6848 54.8919C25.6677 54.9801 25.3898 54.9007 25.3513 54.8786ZM29.861 55.086L29.8439 54.9669C29.814 54.9757 29.7841 54.9801 29.7541 54.9889C29.6088 55.0154 29.4592 55.033 29.301 55.0551C28.989 55.0948 28.6599 55.1301 28.3264 55.1521C27.6553 55.1918 26.9458 55.2271 26.2832 55.0992C26.2105 55.108 26.2362 55.1742 26.1507 55.1698C25.9925 55.1521 25.8728 55.1124 25.7489 55.0771C25.766 54.9625 26.0823 55.0286 26.2875 55.0242C26.2917 54.9713 26.296 54.9183 26.2191 54.9095C26.8688 54.8919 28.0443 54.8963 29.0018 54.6272C29.2198 54.6537 29.4293 54.6846 29.5532 54.7728C29.7456 54.7287 29.4977 54.6581 29.5319 54.5875C29.6986 54.5522 29.8525 54.6978 29.9337 54.5787C30.1303 54.5831 30.0149 54.6228 30.0192 54.7154C30.3483 54.6096 30.5834 54.5258 30.8014 54.5169C30.8484 54.3846 30.5877 54.4949 30.4594 54.4949C30.6475 54.3317 31.1135 54.3052 31.3144 54.3537C31.3913 54.4861 31.0493 54.6493 31.4298 54.6007C31.1605 54.7816 30.3569 54.6493 30.2414 54.8345C30.7629 54.8478 31.635 54.5654 31.9427 54.7419C31.2545 55.033 30.6176 54.9183 29.861 55.086ZM32.9173 54.1905C32.9088 54.1243 32.819 54.1332 32.819 54.0626C33.0669 53.9567 33.0413 54.1199 33.2892 54.014C33.2379 54.089 33.0242 54.1287 32.9173 54.1905ZM34.6742 53.5112C33.8834 53.6391 33.2037 53.8508 32.3958 54.0185C32.4215 54.0846 32.6181 53.9832 32.6694 54.0229C32.6865 54.1376 32.289 54.1949 32.2719 54.0802C32.1052 54.1861 32.0966 54.2214 32.1949 54.3581C31.8957 54.2787 31.8359 54.1817 31.9384 54.0979C32.0453 54.0096 32.3189 53.9435 32.695 53.8597C32.6267 53.82 32.477 53.8597 32.3574 53.8729C32.3018 53.767 32.6438 53.767 32.6523 53.6788C32.7421 53.6656 32.7292 53.7582 32.7506 53.8067C33.3619 53.6038 33.4046 53.5729 34.0715 53.37C34.1954 53.4803 34.3921 53.2818 34.563 53.3877C34.7255 53.3083 34.345 53.3612 34.516 53.2465C34.9734 53.1495 34.9606 53.2553 35.4137 53.0215C35.388 52.9201 35.0247 53.2156 35.0674 53.0348C35.3709 52.9818 35.5847 52.8671 35.7941 52.7172C35.8454 52.7921 35.8326 52.8539 35.7984 52.9157C35.9651 52.8627 35.9822 52.7877 35.9309 52.7039C36.2301 52.5451 36.3327 52.6201 36.478 52.651C36.2515 53.0304 35.0418 53.22 34.6742 53.5112ZM40.6115 51.8614C40.603 51.6673 40.8723 51.6497 41.0219 51.4732C41.0775 51.5879 40.7355 51.7335 40.6115 51.8614ZM42.5009 51.4467C42.3898 51.7202 42.3983 51.3938 42.2231 51.5394C42.2145 51.4864 42.3556 51.4159 42.4411 51.3541C42.4667 51.4026 42.4881 51.4467 42.5607 51.407C42.5693 51.4511 42.5095 51.4644 42.5009 51.4467ZM42.2829 50.8821L42.5137 50.7321L42.5778 50.8248C42.4582 50.8821 42.3214 50.9747 42.2829 50.8821ZM42.5522 50.6615C42.5052 50.5821 42.6933 50.463 42.8386 50.3483L42.9027 50.4366C42.7702 50.5469 42.642 50.6483 42.5522 50.6615ZM42.4539 50.4807C42.0948 50.7365 41.7272 50.9747 41.5434 51.138C41.5648 50.9836 41.8725 50.7454 42.2402 50.4851C42.6035 50.2204 43.0096 49.9028 43.2789 49.6734C43.1335 49.9072 42.8001 50.2028 42.4539 50.4807ZM44.9973 49.9205C44.8733 49.8366 44.8519 49.8411 44.8861 49.6778C45.0186 49.669 45.2281 49.7308 44.9973 49.9205ZM45.2024 49.6117C45.1426 49.6117 45.0528 49.6867 45.0186 49.6161C45.0827 49.594 45.1469 49.572 45.1298 49.5279C45.1939 49.4838 45.211 49.5499 45.2836 49.4882C45.2751 49.5367 45.2666 49.5852 45.3008 49.6205C45.2366 49.669 45.1255 49.6867 45.2024 49.6117ZM46.1856 49.1C46.1685 49.0471 46.2967 48.9544 46.3694 48.875C46.3309 48.853 46.254 48.9412 46.1856 48.9985C46.0915 48.9941 46.2583 48.7603 46.0873 48.8882C46.1001 48.8 46.3779 48.778 46.472 48.7735C46.2967 48.9588 46.4121 48.9721 46.1856 49.1ZM47.4209 46.9076L47.5022 46.9826L47.267 47.2473C47.173 47.1899 47.3654 47.0223 47.4209 46.9076ZM47.8056 47.362C47.8484 47.1899 47.7373 47.3223 47.609 47.4723C47.5577 47.3046 47.9168 47.159 48.0621 47.0091C48.1177 47.0752 47.874 47.2517 47.8056 47.362ZM48.0151 46.3959C47.9681 46.7135 47.8869 47.0047 47.4209 47.2958C47.468 47.0885 47.8954 46.8018 47.7458 46.5371C48.1775 46.1313 48.4426 45.7298 48.6777 45.5666C48.6734 45.8578 48.2844 46.2856 48.0151 46.3959ZM49.2504 44.9314C49.0111 45.2093 48.8786 45.2755 48.7803 45.5578L48.6392 45.4431C48.9213 45.174 49.1393 44.702 49.4685 44.3844C49.4685 44.5962 49.1906 44.7329 49.2504 44.9314ZM52.0973 40.3305C51.9776 40.3261 52.0546 40.1717 51.9306 40.1673C52.0375 40.0967 52.1315 39.7218 52.2426 39.8453C52.1657 39.6953 52.4265 39.4218 52.5419 39.1968C52.3196 39.6159 52.2982 40.035 52.0973 40.3305ZM52.1443 41.5745C52.093 41.5392 52.0332 41.5745 51.9776 41.6495C51.9135 41.6009 51.999 41.4554 52.093 41.301C52.0973 41.4466 52.1828 41.2878 52.1871 41.4333C52.2683 41.323 52.3581 41.0275 52.4307 41.151C52.3367 41.2084 52.2384 41.4069 52.1443 41.5745ZM52.5248 40.7893C52.5119 40.5643 52.6188 40.5202 52.7428 40.3261C52.7513 40.5511 52.6487 40.5952 52.5248 40.7893ZM52.7727 38.1337C52.7513 38.0588 52.7684 37.9397 52.8325 37.7764C52.9351 37.7985 52.871 38.0632 52.7727 38.1337ZM52.7129 37.128C52.7086 36.9383 52.8069 36.8766 52.8625 36.5854C52.9693 36.6295 52.7941 37.0486 52.7129 37.128ZM53.0762 35.6282C53.1788 35.7252 52.9779 35.8929 52.9907 36.1134C52.8411 36.1267 53.0505 35.787 53.0762 35.6282ZM53.0591 36.806C53.0206 36.5413 53.0719 36.4178 53.136 36.0164C53.1574 36.1311 53.0976 36.5016 53.2514 36.1267C53.3711 36.2678 53.1232 36.5546 53.0591 36.806ZM53.5763 33.7446C53.4353 34.4284 53.4994 34.6886 53.4865 35.0194C53.4566 35.1782 53.3669 35.068 53.3284 35.1915C53.5207 35.1253 53.3882 35.6414 53.2985 35.9855C53.1831 35.9237 53.1189 35.9237 53.1147 35.8532C53.1788 35.7958 53.2301 35.5532 53.213 35.4429C53.0805 35.6105 53.1531 35.2091 53.0676 35.1827C53.1275 35.0503 53.1617 35.0547 53.1916 35.1474C53.2386 34.6269 53.4823 34.0269 53.5207 33.5108C53.5592 33.5285 53.572 33.6476 53.6276 33.5329C53.478 33.6079 53.6618 33.2991 53.5678 33.3079C53.5207 33.3829 53.4908 33.3608 53.4737 33.2991C53.525 33.1403 53.5763 32.9815 53.6191 32.8183C53.7516 32.7697 53.5549 33.1138 53.649 33.1138C53.7046 32.8094 53.961 32.3463 53.8328 32.2316C53.7558 32.5315 53.7601 32.6595 53.6233 32.8006C53.6276 32.7918 53.6276 32.783 53.6319 32.7742C53.6917 32.5095 53.7388 32.236 53.7772 31.9537C53.8328 31.9537 53.8798 31.9272 53.9268 31.8875C53.9268 31.8919 53.9268 31.8919 53.9226 31.8963C54.0251 32.0463 54.0038 32.2404 53.961 32.4389C53.914 32.6374 53.8371 32.8359 53.8584 33.0168C53.7687 33.1756 53.7217 33.1579 53.6704 33.1932C53.7644 33.33 53.649 33.9696 53.602 34.1063C53.4823 34.1152 53.649 33.7931 53.5763 33.7446ZM53.572 37.2118C53.6875 36.978 53.6105 36.8545 53.7387 36.7354C53.914 36.7045 53.6917 37.3441 53.572 37.2118ZM53.7473 36.5854C53.8969 36.4796 54.0209 36.1928 54.1876 36.1928C54.0593 36.4531 53.9311 36.7045 53.7473 36.5854ZM55.2135 24.6178C55.2135 24.6178 55.2135 24.6223 55.2135 24.6267C55.2135 24.6267 55.2135 24.6223 55.2135 24.6178ZM55.3759 24.3091C55.4058 24.1988 55.4101 24.6134 55.4486 24.8825C55.2861 24.8075 55.3246 24.4811 55.3759 24.3091Z" fill="#00B307"/>
</svg>
