<svg width="71" height="70" viewBox="0 0 71 70" fill="none" xmlns="http://www.w3.org/2000/svg">
<path d="M69.668 35C69.668 54.0538 54.2218 69.5 35.168 69.5C16.1141 69.5 0.667969 54.0538 0.667969 35C0.667969 15.9462 16.1141 0.5 35.168 0.5C54.2218 0.5 69.668 15.9462 69.668 35Z" fill="white" stroke="#DAE6DA"/>
<g clip-path="url(#clip0_595_53956)">
<path d="M47.951 46.7342L46.1096 25.9816C46.0765 25.5709 45.732 25.2596 45.3147 25.2596H41.4331C41.4265 21.8085 38.618 19 35.1669 19C31.7159 19 28.9073 21.8085 28.9007 25.2596H25.0191C24.6084 25.2596 24.264 25.5709 24.2243 25.9816L22.3828 46.7342C22.3828 46.7607 22.3828 46.7806 22.3828 46.8071C22.3828 49.1188 24.5091 51 27.1189 51H43.2149C45.8248 51 47.951 49.1188 47.951 46.8071C47.951 46.7806 47.951 46.7607 47.951 46.7342ZM35.1669 20.5897C37.7436 20.5897 39.8368 22.6829 39.8434 25.2596H30.4905C30.4971 22.6829 32.5902 20.5897 35.1669 20.5897ZM43.2149 49.4036H27.1189C25.3967 49.4036 23.9924 48.2577 23.9725 46.8336L25.7477 26.8493H28.9007V29.638C28.9007 30.0751 29.2584 30.4328 29.6956 30.4328C30.1328 30.4328 30.4905 30.0751 30.4905 29.638V26.8493H39.8434V29.638C39.8434 30.0751 40.2011 30.4328 40.6382 30.4328C41.0754 30.4328 41.4331 30.0751 41.4331 29.638V26.8493H44.5861L46.3613 46.8402C46.3414 48.2577 44.9372 49.4036 43.2149 49.4036Z" fill="#00B307"/>
<path d="M38.4714 35.5465L33.7817 40.2362L31.8674 38.3219C31.556 38.0106 31.0526 38.0106 30.7413 38.3219C30.43 38.6332 30.43 39.1366 30.7413 39.448L33.2186 41.9253C33.371 42.0776 33.5763 42.1571 33.7817 42.1571C33.987 42.1571 34.1857 42.0776 34.3447 41.9253L39.5974 36.6725C39.9088 36.3612 39.9088 35.8578 39.5974 35.5465C39.2861 35.2418 38.7827 35.2418 38.4714 35.5465Z" fill="#00B307"/>
</g>
<defs>
<clipPath id="clip0_595_53956">
<rect width="32" height="32" fill="white" transform="translate(19.168 19)"/>
</clipPath>
</defs>
</svg>
