<svg width="71" height="70" viewBox="0 0 71 70" fill="none" xmlns="http://www.w3.org/2000/svg">
<path d="M69.668 35C69.668 54.0538 54.2218 69.5 35.168 69.5C16.1141 69.5 0.667969 54.0538 0.667969 35C0.667969 15.9462 16.1141 0.5 35.168 0.5C54.2218 0.5 69.668 15.9462 69.668 35Z" fill="white" stroke="#DAE6DA"/>
<g clip-path="url(#clip0_595_53970)">
<path d="M50.3845 26.5441C50.3845 26.4225 50.3575 26.301 50.3035 26.1862C50.1954 25.9565 49.986 25.8012 49.7564 25.7539L35.9987 19.081C35.7758 18.973 35.5124 18.973 35.2895 19.081L21.3968 25.8147C21.1266 25.943 20.951 26.2132 20.9375 26.5171V26.5239C20.9375 26.5306 20.9375 26.5374 20.9375 26.5509V43.4491C20.9375 43.7598 21.1131 44.0435 21.3968 44.1786L35.2895 50.9122C35.2963 50.9122 35.2963 50.9122 35.3031 50.919C35.3233 50.9257 35.3436 50.9325 35.3638 50.946C35.3706 50.946 35.3773 50.9527 35.3909 50.9527C35.4111 50.9595 35.4314 50.9662 35.4516 50.973C35.4584 50.973 35.4651 50.9797 35.4719 50.9797C35.4922 50.9865 35.5192 50.9865 35.5394 50.9932C35.5462 50.9932 35.5529 50.9932 35.5597 50.9932C35.5867 50.9932 35.6205 51 35.6475 51C35.6745 51 35.7083 51 35.7353 50.9932C35.7421 50.9932 35.7488 50.9932 35.7556 50.9932C35.7758 50.9932 35.8028 50.9865 35.8231 50.9797C35.8299 50.9797 35.8366 50.973 35.8434 50.973C35.8636 50.9662 35.8839 50.9595 35.9042 50.9527C35.9109 50.9527 35.9177 50.946 35.9312 50.946C35.9514 50.9392 35.9717 50.9325 35.992 50.919C35.9987 50.919 35.9987 50.919 36.0055 50.9122L49.9388 44.1583C50.2157 44.0232 50.398 43.7396 50.398 43.4289V26.5644C50.3845 26.5576 50.3845 26.5509 50.3845 26.5441ZM35.6407 20.7087L47.6897 26.5509L43.2524 28.7054L31.2034 22.8632L35.6407 20.7087ZM35.6407 32.393L23.5918 26.5509L29.3461 23.7615L41.3951 29.6036L35.6407 32.393ZM22.5584 27.8544L34.8303 33.8046V48.886L22.5584 42.9358V27.8544ZM36.4512 48.886V33.8046L42.2123 31.0084V34.9527C42.2123 35.3985 42.577 35.7632 43.0228 35.7632C43.4685 35.7632 43.8332 35.3985 43.8332 34.9527V30.2182L48.7636 27.8274V42.9088L36.4512 48.886Z" fill="#00B307"/>
</g>
<defs>
<clipPath id="clip0_595_53970">
<rect width="32" height="32" fill="white" transform="translate(19.668 19)"/>
</clipPath>
</defs>
</svg>
