<svg width="71" height="70" viewBox="0 0 71 70" fill="none" xmlns="http://www.w3.org/2000/svg">
<path d="M70.168 35C70.168 54.33 54.4979 70 35.168 70C15.838 70 0.167969 54.33 0.167969 35C0.167969 15.67 15.838 0 35.168 0C54.4979 0 70.168 15.67 70.168 35Z" fill="white"/>
<g clip-path="url(#clip0_595_53935)">
<path d="M47.8701 41.3042C46.8927 41.3042 45.9641 41.687 45.2637 42.3794C44.5632 43.0798 44.1722 43.9921 44.1722 44.9695C44.1722 45.9469 44.5551 46.8591 45.2637 47.5596C45.9723 48.2519 46.8927 48.6347 47.8701 48.6347C49.8737 48.6347 51.5027 46.9894 51.5027 44.9695C51.5027 42.9495 49.8737 41.3042 47.8701 41.3042ZM47.8701 47.0057C46.7461 47.0057 45.8012 46.0772 45.8012 44.9695C45.8012 43.8617 46.7461 42.9332 47.8701 42.9332C48.9778 42.9332 49.8737 43.8455 49.8737 44.9695C49.8737 46.0935 48.9778 47.0057 47.8701 47.0057ZM48.8149 29.0949C48.6683 28.9564 48.4728 28.8831 48.2692 28.8831H44.0908C43.6428 28.8831 43.2763 29.2497 43.2763 29.6976V36.3765C43.2763 36.8245 43.6428 37.191 44.0908 37.191H50.7208C51.1688 37.191 51.5353 36.8245 51.5353 36.3765V31.9049C51.5353 31.6769 51.4376 31.4569 51.2665 31.3022L48.8149 29.0949ZM49.9063 35.562H44.9053V30.504H47.9515L49.9063 32.2633V35.562ZM27.98 41.3042C27.0026 41.3042 26.0741 41.687 25.3736 42.3794C24.6732 43.0798 24.2822 43.9921 24.2822 44.9695C24.2822 45.9469 24.665 46.8591 25.3736 47.5596C26.0822 48.2519 27.0026 48.6347 27.98 48.6347C29.9837 48.6347 31.6127 46.9894 31.6127 44.9695C31.6127 42.9495 29.9837 41.3042 27.98 41.3042ZM27.98 47.0057C26.856 47.0057 25.9112 46.0772 25.9112 44.9695C25.9112 43.8617 26.856 42.9332 27.98 42.9332C29.0877 42.9332 29.9837 43.8455 29.9837 44.9695C29.9837 46.0935 29.0877 47.0057 27.98 47.0057ZM22.5473 42.3061H20.9102V40.1395C20.9102 39.6915 20.5437 39.325 20.0957 39.325C19.6477 39.325 19.2812 39.6915 19.2812 40.1395V43.1206C19.2812 43.5685 19.6477 43.9351 20.0957 43.9351H22.5473C22.9953 43.9351 23.3618 43.5685 23.3618 43.1206C23.3618 42.6726 22.9953 42.3061 22.5473 42.3061ZM26.6768 37.867C26.6768 37.4191 26.3103 37.0525 25.8623 37.0525H15.9825C15.5345 37.0525 15.168 37.4191 15.168 37.867C15.168 38.315 15.5345 38.6815 15.9825 38.6815H25.8623C26.3103 38.6815 26.6768 38.3232 26.6768 37.867ZM17.6359 34.9267L27.5158 34.9837C27.9637 34.9837 28.3303 34.6253 28.3384 34.1774C28.3465 33.7212 27.98 33.3547 27.532 33.3547L17.6522 33.2977C17.644 33.2977 17.644 33.2977 17.644 33.2977C17.1961 33.2977 16.8295 33.6561 16.8295 34.1041C16.8214 34.5602 17.1879 34.9267 17.6359 34.9267ZM19.2975 31.2289H29.1773C29.6253 31.2289 29.9918 30.8624 29.9918 30.4144C29.9918 29.9664 29.6253 29.5999 29.1773 29.5999H19.2975C18.8495 29.5999 18.483 29.9664 18.483 30.4144C18.483 30.8624 18.8495 31.2289 19.2975 31.2289ZM54.8666 30.1293L49.0348 25.2993C48.8882 25.1772 48.709 25.112 48.5135 25.112H41.6554V22.1798C41.6554 21.7318 41.2889 21.3653 40.8409 21.3653H20.0957C19.6477 21.3653 19.2812 21.7318 19.2812 22.1798V28.1419C19.2812 28.5899 19.6477 28.9564 20.0957 28.9564C20.5437 28.9564 20.9102 28.5899 20.9102 28.1419V22.9943H40.0346V42.3061H33.3557C32.9077 42.3061 32.5412 42.6726 32.5412 43.1206C32.5412 43.5685 32.9077 43.9351 33.3557 43.9351H43.3007C43.7487 43.9351 44.1152 43.5685 44.1152 43.1206C44.1152 42.6726 43.7487 42.3061 43.3007 42.3061H41.6636V26.741H48.2284L53.539 31.1393L53.482 42.2898H52.6349C52.1869 42.2898 51.8204 42.6563 51.8204 43.1043C51.8204 43.5522 52.1869 43.9188 52.6349 43.9188H54.2883C54.7363 43.9188 55.1028 43.5604 55.1028 43.1124L55.168 30.7646C55.1598 30.5203 55.0539 30.2841 54.8666 30.1293Z" fill="#00B307"/>
</g>
<defs>
<clipPath id="clip0_595_53935">
<rect width="40" height="40" fill="white" transform="translate(15.168 15)"/>
</clipPath>
</defs>
</svg>
