<svg width="172" height="178" viewBox="0 0 172 178" fill="none" xmlns="http://www.w3.org/2000/svg">
<path d="M113.746 62.945C116.063 59.5733 118.229 56.0892 120.2 52.4902C122.395 48.4931 124.012 44.1642 126.359 40.2794C130.291 33.7716 133.429 26.9489 136.024 19.7709C137.485 15.7372 137.123 12.415 135.111 8.63504C132.369 3.47129 124.052 0.358699 118.609 5.68347C116.444 7.80725 114.978 10.1457 114.381 13.0441C113.835 15.6624 113.578 18.3413 113.122 20.9909C112.814 22.7442 112.692 24.629 111.952 26.1927C108.692 33.0207 105.403 39.8427 101.79 46.4732C99.2939 51.0439 96.2707 55.3248 93.4346 59.6944C92.2539 61.5055 90.9276 63.2304 89.8663 64.7141C86.9706 63.0983 84.4893 61.7611 82.0606 60.3113C81.1517 59.7619 80.196 59.0851 79.5988 58.2115C77.4701 55.1367 74.566 53.5933 71.0145 53.3918C66.7708 53.1561 62.5342 53.157 58.2864 53.0627C56.5405 53.0239 54.7609 53.2747 53.0683 52.9688C50.8364 52.5868 48.6888 51.4804 46.4597 51.2659C44.2433 51.0479 41.9521 51.5376 39.5984 51.7359C37.2666 46.6275 32.9929 46.1197 29.6793 50.0737C27.7006 52.4407 26.6527 55.1267 26.0593 58.1927C25.3831 61.674 24.6057 65.2393 23.237 68.4763C20.2645 75.4637 18.8951 82.5713 20.5647 90.0634C22.4386 98.495 23.2037 107.077 23.4663 115.671C23.704 123.333 26.6154 129.614 31.7943 134.739C37.5104 140.403 43.5196 145.777 49.5847 151.051C51.6184 152.82 54.1133 154.209 56.6019 155.208C62.1881 157.444 67.9032 159.337 73.5785 161.338C75.4305 161.993 77.314 162.611 79.2143 163.084C85.3559 164.621 91.3161 164.469 96.9442 161.056C97.9368 160.461 99.178 160.19 100.333 159.956C108.712 158.284 115.108 153.679 119.78 146.393C120.976 144.535 122.291 142.715 123.805 141.135C125.93 138.91 127.568 136.441 128.229 133.426C129.441 127.862 130.438 122.259 131.609 116.693C133.347 108.432 130.572 101.524 125.662 95.2314C123.278 92.1709 120.726 89.2546 118.423 86.1433C116.137 83.0417 113.341 80.6552 109.972 78.903C108.138 77.9489 106.369 76.8788 104.41 75.7626C107.629 71.3436 110.806 67.231 113.746 62.945ZM44.2458 53.9359C45.5342 54.0024 46.939 53.9387 48.0774 54.4251C51.4151 55.8493 54.854 55.8294 58.3661 55.7754C62.3934 55.7058 66.421 55.8466 70.4427 56.017C73.4132 56.1399 75.8059 57.3472 77.6611 59.9503C78.6279 61.2971 80.2923 62.2278 81.7916 63.0497C83.8015 64.1518 85.9447 64.979 87.5356 67.0938C86.593 68.1943 85.669 69.2617 84.7578 70.3256C81.1543 69.2969 78.2219 67.5929 75.7221 64.9287C74.0013 63.102 72.0087 61.4902 69.9516 60.0505C67.9269 58.6299 65.5643 58.4801 63.2159 58.8032C63.116 59.1532 63.0288 59.4997 62.9289 59.8497C63.3668 59.7994 63.8028 59.6375 64.217 59.7059C67.6456 60.2217 70.3214 62.0944 72.4309 64.7818C75.1553 68.2537 78.2167 71.1843 83.227 72.4712C79.6194 75.8751 78.2622 80.988 72.6086 81.4766C71.079 78.812 68.753 77.1797 65.6749 76.7499C63.4185 76.4307 62.831 76.5361 60.2739 77.9964C61.4839 79.3325 63.1161 78.8837 64.4806 79.2939C65.8578 79.7006 67.2326 80.1499 68.5627 81.0043C64.9475 80.8202 61.4206 80.5558 57.9953 82.7737C59.7324 84.035 61.2582 82.7601 62.7373 82.9284C64.4476 83.1453 66.1767 83.329 67.8727 83.648C69.4531 83.9427 71.02 84.3954 72.8013 84.8312C69.9647 91.7111 68.9739 98.8549 71.9068 106.841C73.1108 104.491 71.937 102.822 72.0796 101.17C72.2129 99.535 72.1413 97.9 72.6478 96.1761C73.4821 98.4288 74.3164 100.682 75.1507 102.934C75.3964 102.881 75.626 102.818 75.8717 102.764C75.8684 102.176 75.9485 101.593 75.8654 101.013C75.64 99.5744 75.3 98.1674 75.1001 96.7219C74.2623 90.74 75.5104 85.4186 79.7444 80.9591C82.1022 78.4739 84.1441 75.6688 86.5836 73.2873C94.4348 65.6177 99.6824 55.9855 105.476 46.8203C109.246 40.8475 111.971 34.1667 114.938 27.6854C115.844 25.7115 115.998 23.3694 116.456 21.1962C117.159 17.8196 117.76 14.4151 118.505 11.0409C119.832 5.02495 127.918 4.48453 131.41 8.69893C133.802 11.5754 134.884 14.6715 133.433 18.5901C131.099 24.883 128.452 30.9678 124.898 36.6707C122.557 40.4272 120.635 44.4755 118.748 48.5002C116.616 53.0548 114.225 57.4003 111.132 61.3637C104.119 70.3594 97.2853 79.5163 90.344 88.5764C88.999 90.3345 87.5503 92.0089 86.0495 93.6415C83.4413 96.4761 81.8576 99.8844 80.6296 103.503C80.4677 103.983 80.5313 104.54 80.4676 105.343C83.3206 104.545 83.5087 101.758 85.2125 100.014C90.416 105.861 88.7623 112.612 87.5804 120.019C88.4032 119.035 88.9386 118.678 89.0843 118.189C91.0268 111.863 91.5307 105.681 87.2713 99.9946C86.538 99.0183 86.56 98.9982 86.7111 97.2739C89.9196 98.0465 90.2274 101.58 92.2398 103.425C94.3626 100.667 94.005 99.5597 89.43 94.5491C92.4631 90.6722 95.5021 86.7657 98.5037 82.9255C102.233 84.2279 104.888 86.3868 106.823 89.7672C107.951 91.729 109.845 93.2275 111.473 94.8554C112.16 95.5499 113.087 96.0104 113.84 96.6446C117.101 99.4502 118.713 102.849 117.579 107.298C116.567 111.222 116.255 115.207 116.402 119.275C116.525 122.522 115.734 124.465 113.818 126.758C109.375 122.357 104.369 118.993 98.0405 118.153C103.084 121.45 109.338 123.208 111.935 129.856C108.149 132.314 106.152 135.709 105.167 139.528C100.67 138.114 96.4465 136.751 92.1854 135.454C86.5274 133.728 81.946 130.473 78.7307 125.383C75.5776 120.374 71.7771 115.922 67.7209 111.694C66.8022 110.741 65.8802 109.774 64.8171 109.001C61.7505 106.731 57.9591 107.128 55.3117 109.917C54.2823 110.999 53.3244 112.146 52.3469 113.27C52.1401 113.159 51.9172 113.038 51.7104 112.926C51.8959 111.543 51.9172 110.107 52.2796 108.773C53.4811 104.32 53.3614 100.146 50.3093 96.4138C48.888 94.6871 49.1492 92.652 50.2061 91.0993C53.6986 85.9462 52.1452 81.0445 49.7322 76.2529C48.226 73.2594 45.984 70.6925 43.0711 69.0112C40.4332 67.4928 38.9745 65.0471 37.6703 62.4608C36.6143 60.3532 36.4255 58.2174 37.7675 56.0816C38.242 55.3341 38.5386 54.4813 38.8414 53.8091C40.6682 53.8958 42.4607 53.8517 44.2458 53.9359ZM126.22 105.217C128.319 106.87 129.453 109.068 129.097 111.942C128.167 119.266 127.571 126.666 125.021 133.649C124.31 135.583 123.009 137.301 121.849 139.036C120.924 140.413 119.62 141.542 118.833 142.979C116.206 147.782 112.528 151.542 108.198 154.639C106.469 155.872 104.39 156.597 101.909 157.826C102.41 156.553 102.674 155.835 102.975 155.051C102.65 154.958 102.362 154.799 102.287 154.876C100.433 156.676 98.1529 157.625 95.8947 158.765C90.3178 161.588 84.683 161.469 79.0316 159.559C71.883 157.149 64.792 154.541 57.7442 151.837C55.7398 151.069 53.7265 149.954 52.1117 148.533C45.9682 143.168 39.7584 137.864 34.0116 132.082C28.4503 126.487 25.333 119.365 25.5174 111.279C25.6849 103.913 24.4444 96.8077 23.0882 89.6781C21.7876 82.8138 22.8065 76.4055 25.4174 70.0224C26.8768 66.4519 27.7839 62.5986 28.5958 58.7994C29.1524 56.2204 29.8597 53.8524 31.6075 51.8574C33.2482 49.9759 33.2669 49.9428 36.1168 50.9121C36.6018 52.5597 35.8916 53.975 35.1262 55.3353C33.894 57.5252 33.7546 59.7651 34.5618 62.1235C35.8904 66.0072 37.8943 69.2846 41.404 71.6291C45.7588 74.5407 48.7493 78.6126 49.4539 84.0842C49.6521 85.6284 49.8223 87.2223 48.5238 88.6871C45.7108 88.0161 43.0172 88.378 40.552 91.3415C42.8947 91.2584 44.8309 91.1888 46.7672 91.1193C47.3096 93.1437 46.6998 93.8443 45.0257 94.0801C40.7319 94.6997 37.7138 97.5348 34.6028 100.171C34.7221 100.419 34.8414 100.666 34.9608 100.914C35.5642 100.608 36.1583 100.318 36.7617 100.012C38.1241 99.3151 39.4762 98.5788 40.865 97.9305C46.9606 95.1048 49.4707 97.8083 50.5242 104.25C50.716 105.403 50.3561 106.694 50.1228 107.894C49.6721 110.093 49.2044 112.227 49.7895 114.52C50.0082 115.358 49.5946 116.495 49.1695 117.327C48.4314 118.792 47.4703 120.136 46.9902 121.909C48.1378 120.808 49.2624 119.672 50.4491 118.616C51.7429 117.447 53.0954 116.346 54.4318 115.235C55.4428 114.396 56.5125 113.626 57.5005 112.751C59.7101 110.797 61.5229 110.621 63.5085 112.782C67.02 116.598 70.3454 120.592 73.6581 124.59C74.7132 125.856 75.4777 127.371 76.4573 128.714C78.5798 131.608 79.411 134.844 77.9735 138.184C76.6589 141.209 74.8509 144.02 73.2104 146.897C72.8989 147.432 72.3969 147.864 71.985 148.328C77.6599 146.403 80.0201 143.09 82.1353 134.599C85.6583 137.361 89.6211 138.824 93.823 139.632C95.6509 139.985 97.4694 140.354 99.2871 140.668C102.649 141.244 104.516 143.213 104.792 146.727C104.898 148.128 105.059 149.528 105.244 151.441C107.881 148.037 107.218 144.868 106.219 141.987C107.184 140.292 107.892 138.765 108.864 137.46C110.026 135.892 111.412 134.502 112.743 133.056C116.264 129.213 119.848 125.353 119.679 119.58C119.562 115.517 119.974 111.548 120.828 107.597C121.176 106.001 121.133 104.316 121.296 102.167C123.104 103.283 124.789 104.082 126.22 105.217ZM109.582 81.6467C112.159 83.1399 114.305 85.1301 116.11 87.5928C118.592 90.9769 121.246 94.23 123.76 97.5774C124.707 98.8458 125.507 100.238 126.589 101.918C124.474 101.462 122.882 101.227 121.353 100.763C120.713 100.561 120.066 99.9674 119.707 99.3789C117.887 96.3875 115.508 94.0826 112.601 92.1613C110.918 91.0536 109.37 89.4177 108.301 87.6783C106.672 84.999 104.65 83.0165 101.848 81.8098C101.37 81.6044 100.98 81.207 100.338 80.7384C101.14 79.6764 101.843 78.7541 102.595 77.762C105.034 79.0966 107.338 80.3284 109.582 81.6467Z" fill="#E6E6E6"/>
<path d="M117.399 44.9586C118.184 43.2562 118.96 41.5145 120.007 39.9784C122.002 37.046 124.065 34.165 126.317 31.4286C129.459 27.6057 129.65 23.0517 129.719 18.4473C129.729 17.8557 129.405 17.2436 129.17 16.3966C127.066 17.9707 126.386 20.0228 126.263 22.1179C126.064 25.384 124.822 28.1655 123.201 30.8548C121.645 33.4281 120.138 36.0301 118.494 38.5293C116.029 42.2781 115.21 46.6261 114.047 50.8584C115.878 49.2891 116.446 47.0154 117.399 44.9586Z" fill="#E6E6E6"/>
<path d="M55.8273 59.3483C52.0973 59.1959 49.0468 59.0809 45.8135 58.9462C48.1979 61.7964 52.2342 62.075 55.8273 59.3483Z" fill="#E6E6E6"/>
</svg>
