<svg width="71" height="70" viewBox="0 0 71 70" fill="none" xmlns="http://www.w3.org/2000/svg">
    <path
        d="M69.668 35C69.668 54.0538 54.2218 69.5 35.168 69.5C16.1141 69.5 0.667969 54.0538 0.667969 35C0.667969 15.9462 16.1141 0.5 35.168 0.5C54.2218 0.5 69.668 15.9462 69.668 35Z"
        fill="white" stroke="#DAE6DA" />
    <g clip-path="url(#clip0_595_53939)">
        <path
            d="M46.6177 31.1681V29.9378C46.6177 26.9933 45.5757 24.2571 43.6866 22.2269C41.7505 20.1429 39.0883 19 36.1841 19H35.169C32.2648 19 29.6026 20.1429 27.6665 22.2269C25.7774 24.2571 24.7354 26.9933 24.7354 29.9378V31.1681C22.4429 31.3227 20.6211 33.2319 20.6211 35.5647V37.4874C20.6211 39.9143 22.5976 41.8908 25.0245 41.8908H27.5051C27.9488 41.8908 28.3119 41.5277 28.3119 41.084V31.9613C28.3119 31.5176 27.9488 31.1546 27.5051 31.1546H26.3488V29.9378C26.3488 24.6202 30.1404 20.6134 35.1623 20.6134H36.1774C41.206 20.6134 44.9908 24.6202 44.9908 29.9378V31.1546H43.8345C43.3908 31.1546 43.0278 31.5176 43.0278 31.9613V41.0773C43.0278 41.521 43.3908 41.884 43.8345 41.884H44.964C44.6345 46.0924 41.7371 47.0672 40.3925 47.2891C40.0228 46.1529 38.9539 45.3328 37.6967 45.3328H35.6799C34.1203 45.3328 32.8497 46.6034 32.8497 48.163C32.8497 49.7227 34.1203 51 35.6799 51H37.7034C39.0077 51 40.1034 50.1126 40.4329 48.916C41.0917 48.8218 42.1337 48.5866 43.169 47.9815C44.6278 47.1277 46.3555 45.3866 46.5841 41.8773C48.89 41.7361 50.7186 39.8202 50.7186 37.4807V35.558C50.7253 33.2319 48.9102 31.316 46.6177 31.1681ZM26.7119 40.2706H25.0379C23.4984 40.2706 22.248 39.0202 22.248 37.4807V35.558C22.248 34.0185 23.4984 32.7681 25.0379 32.7681H26.7119V40.2706ZM37.7034 49.3866H35.6799C35.0076 49.3866 34.4631 48.842 34.4631 48.1697C34.4631 47.4975 35.0076 46.9529 35.6799 46.9529H37.7034C38.3757 46.9529 38.9203 47.4975 38.9203 48.1697C38.9203 48.842 38.3757 49.3866 37.7034 49.3866ZM49.1119 37.4807C49.1119 39.0202 47.8614 40.2706 46.3219 40.2706H44.648V32.7681H46.3219C47.8614 32.7681 49.1119 34.0185 49.1119 35.558V37.4807Z"
            fill="#00B307" />
    </g>
    <defs>
        <clipPath id="clip0_595_53939">
            <rect width="32" height="32" fill="white" transform="translate(19.668 19)" />
        </clipPath>
    </defs>
</svg>